<svg width="900" height="500" viewBox="0 0 900 500" fill="none" xmlns="http://www.w3.org/2000/svg">
<g clip-path="url(#clip0)">
<path d="M78.0339 449.267C63.0716 427.592 61.0019 401.471 72.3853 378.678C86.5284 350.473 119.385 328.706 133.571 300.501C143.575 280.568 143.446 258.085 133.226 238.246C123.395 219.246 105.07 203.2 92.3063 185.133C79.8449 167.502 72.7734 147.413 76.3523 127.76C79.9311 108.138 95.1091 89.1385 119.126 79.4986C152.716 66.0338 194.757 72.9372 230.46 83.1369C251.244 89.0763 272.113 96.073 294.406 96.6016C332.307 97.4723 365.466 79.8095 396.512 64.1058C427.558 48.4021 464.554 33.227 501.378 39.8195C528.37 44.6394 548.852 60.2188 573.688 69.2056C587.443 74.1811 602.578 77.1352 617.929 77.7883C643.24 78.9077 668.162 73.9323 692.999 70.2318C717.836 66.5313 744.182 64.168 768.113 70.2629C792.001 76.3578 812.353 93.2432 809.378 111.404C808.041 119.613 802.306 127.045 797.649 134.601C779.712 163.801 777.47 197.852 791.569 228.14C800.021 246.362 814.293 263.901 813.647 283.087C812.913 304.419 793.855 323.295 789.758 344.44C785.576 366.052 797.391 387.353 805.885 408.313C814.38 429.272 819.123 453.371 802.694 471.687C787.387 488.759 758.023 496.004 730.34 499.954C614.393 516.528 494.91 496.253 376.677 497C313.033 497.404 249.648 503.903 185.961 502.099C165.221 501.509 135.641 502.877 118.609 492.708C102.181 483.037 87.2614 462.7 78.0339 449.267Z" fill="#003368"/>
<path d="M898.117 153.011H664.842C674.415 153.011 675.234 150.554 683.599 147.196C685.367 146.48 687.135 145.672 688.299 144.521C689.938 142.873 690.24 140.759 690.93 138.831C693.172 132.425 700.545 127.107 709.428 125.49C718.31 123.873 728.314 125.988 734.523 130.839C731.16 122.598 740.689 114.451 749.27 108.481C757.807 102.51 770.226 99.8357 782.083 100.458C786.266 100.675 790.535 101.328 794.028 103.039C797.261 104.625 799.547 106.988 801.487 109.413C807.006 116.286 810.283 124.091 810.973 132.052C812.957 129.222 817.269 129.533 820.977 131.181C824.685 132.829 826.798 135.845 828.738 138.675C830.161 135.566 834.258 133.202 838.785 132.829C843.313 132.456 848.013 134.135 850.341 136.934C852.152 139.079 852.54 141.692 852.928 144.179C865.476 149.963 883.155 152.575 898.117 153.011Z" fill="#0B65A8"/>
<path d="M234.772 153.011H1.49756C11.07 153.011 11.8893 150.554 20.2544 147.196C22.0223 146.48 23.7901 145.672 24.9544 144.521C26.5929 142.873 26.8947 140.759 27.5846 138.831C29.8268 132.425 37.2002 127.107 46.0827 125.49C54.9653 123.873 64.9689 125.988 71.1781 130.839C67.8148 122.598 77.3441 114.451 85.9248 108.48C94.4624 102.51 106.881 99.8357 118.738 100.458C122.921 100.675 127.19 101.328 130.682 103.039C133.916 104.625 136.202 106.988 138.142 109.413C143.661 116.286 146.938 124.091 147.628 132.052C149.612 129.222 153.924 129.533 157.632 131.181C161.34 132.829 163.453 135.845 165.393 138.675C166.816 135.566 170.913 133.202 175.44 132.829C179.968 132.456 184.668 134.135 186.996 136.934C188.807 139.079 189.195 141.692 189.583 144.179C202.131 149.963 219.81 152.575 234.772 153.011Z" fill="#0B65A8"/>
<path d="M327.262 253.266H93.9879C103.56 253.266 104.38 250.809 112.745 247.451C114.513 246.735 116.281 245.927 117.445 244.776C119.083 243.128 119.385 241.014 120.075 239.086C122.317 232.68 129.691 227.362 138.573 225.745C147.456 224.128 157.459 226.243 163.668 231.094C160.305 222.853 169.834 214.706 178.415 208.735C186.996 202.765 199.371 200.091 211.229 200.713C215.411 200.93 219.68 201.583 223.173 203.294C226.407 204.879 228.692 207.243 230.632 209.668C236.152 216.541 239.429 224.346 240.119 232.307C242.102 229.477 246.414 229.788 250.122 231.436C253.831 233.115 255.943 236.1 257.884 238.93C259.307 235.82 263.403 233.457 267.931 233.084C272.458 232.711 277.158 234.39 279.486 237.189C281.297 239.334 281.686 241.946 282.074 244.434C294.621 250.218 312.343 252.83 327.262 253.266Z" fill="#0B65A8"/>
<path d="M621.68 265.642H456.706C463.476 265.642 464.08 263.901 469.987 261.506C471.237 261.009 472.488 260.449 473.307 259.609C474.471 258.459 474.687 256.966 475.161 255.567C476.757 251.027 481.974 247.264 488.226 246.113C494.522 244.963 501.593 246.456 505.991 249.907C503.62 244.092 510.346 238.308 516.426 234.079C522.506 229.85 531.259 227.953 539.624 228.42C542.6 228.575 545.618 229.042 548.076 230.254C550.361 231.374 551.956 233.053 553.336 234.763C557.217 239.645 559.545 245.15 560.063 250.778C561.443 248.788 564.504 248.974 567.134 250.187C569.765 251.369 571.231 253.483 572.611 255.474C573.645 253.266 576.534 251.586 579.682 251.338C582.873 251.089 586.193 252.271 587.875 254.261C589.168 255.784 589.427 257.619 589.686 259.392C598.611 263.465 611.116 265.331 621.68 265.642Z" fill="#0B65A8"/>
<path d="M778.677 267.383C748.58 269.56 719.949 280.941 701.278 298.138C683.772 289.213 663.549 281.688 642.075 282.092C620.645 282.496 598.396 293.069 595.593 308.4C578.087 296.365 550.318 292.82 528.198 299.817C506.035 306.814 490.813 323.948 491.245 341.393C477.619 335.298 459.38 334.956 445.366 340.616C431.352 346.244 422.125 357.594 422.125 369.162C413.07 360.735 408.887 350.007 400.005 341.486C391.122 332.966 373.874 326.964 361.629 332.966C359.559 333.992 357.662 335.329 355.204 335.578C350.935 336.044 347.615 333.184 344.683 330.882C327.694 317.48 294.923 316.858 277.029 329.639C269.267 321.678 261.204 313.531 249.821 308.306C238.437 303.082 222.785 301.496 211.703 307.031C199.285 283.305 173.284 262.004 139.436 255.598C142.67 270.617 140.729 286.197 133.528 300.501C119.385 328.706 86.5284 350.473 72.3853 378.678C61.0019 401.471 63.0716 427.561 78.0339 449.267C87.3045 462.7 102.181 483.037 118.566 492.833C135.598 503.001 165.178 501.633 185.918 502.224C249.605 504.028 312.99 497.528 376.634 497.124C494.867 496.378 614.35 516.653 730.297 500.078C757.98 496.129 787.344 488.884 802.651 471.812C819.08 453.465 814.336 429.365 805.842 408.437C797.347 387.478 785.533 366.177 789.715 344.565C793.812 323.45 812.87 304.544 813.603 283.211C813.776 278.267 812.957 273.416 811.491 268.627C800.711 267.041 789.629 266.606 778.677 267.383Z" fill="#0B65A8"/>
<path d="M38.2352 432.475C30.215 420.596 23.0572 408.25 20.082 395.221C17.1068 382.192 18.616 368.292 27.1967 356.63C28.9646 354.205 31.5517 351.655 35.3462 351.313C40.3049 350.877 44.0563 354.391 46.5572 357.501C64.4085 379.611 78.681 403.213 89.0296 427.686C85.6663 408.935 83.8122 390.059 83.4672 371.152C83.1654 353.801 85.192 334.645 102.095 322.269C107.614 318.226 115.591 315.054 123.137 316.64C132.709 318.662 136.418 326.84 138.573 333.837C148.189 365.368 155.217 397.336 159.616 429.458C172.034 401.938 186.781 372.21 220.845 356.91C224.079 355.48 227.787 354.143 231.495 354.765C237.618 355.791 239.645 361.264 240.378 365.742C244.388 390.432 243.396 415.558 237.403 440.031C243.957 429.956 251.675 419.01 265.948 414.719C268.017 414.097 270.346 413.63 272.502 414.097C276.9 415.029 278.15 419.01 278.538 422.306C280.22 435.678 280.565 449.142 279.703 462.576C279.444 466.587 279.013 470.692 276.727 474.362C272.2 481.607 261.42 485.65 251.071 488.417C206.227 500.358 156.425 498.741 109.597 495.321C72.7305 492.646 52.6801 453.869 38.2352 432.475Z" fill="#394A66"/>
<path d="M104.078 483.846C102.483 480.021 100.068 476.383 97.9123 472.744C97.3517 471.78 96.7912 470.848 96.1875 469.884C96.36 469.604 96.36 469.262 96.1444 468.92C95.8425 468.484 95.3682 468.049 94.8508 467.676C93.7297 465.81 92.6086 463.975 91.5306 462.109C89.7627 459.155 88.038 456.17 86.2701 453.185C86.3563 452.967 86.4426 452.718 86.4857 452.501C86.615 451.785 86.7444 451.07 86.8306 450.355C87.0031 448.707 87.1756 447.028 87.4343 445.38C87.9086 442.114 89.0297 438.756 88.4692 435.491C88.3398 434.713 86.7875 434.185 86.1839 435.056C84.1141 438.041 83.8985 441.586 83.5967 444.882C83.5105 445.97 83.4242 447.09 83.3811 448.178C81.8288 445.504 80.2765 442.799 78.7674 440.124C72.9894 430.018 67.427 419.849 61.9509 409.681C61.994 409.65 62.0371 409.619 62.0802 409.587C63.2445 408.033 63.072 405.98 63.2013 404.239C63.3307 402.187 63.3738 400.134 63.4601 398.082C63.6325 394.101 64.0206 389.997 63.2876 386.048C63.1151 385.052 60.7004 385.052 60.5279 386.048C59.7518 389.997 60.0536 394.101 60.0536 398.082C60.0536 400.041 60.0105 402 60.0536 403.959C60.0536 404.612 60.0105 405.296 60.0105 406.011C58.1995 402.653 56.4316 399.295 54.6206 395.936C50.1362 387.54 45.695 379.175 41.4262 370.717C41.0812 370.002 39.4858 370.282 39.8308 371.028C47.8509 388.846 56.4747 406.509 65.7022 424.016C64.1068 422.897 62.4252 421.808 60.7435 420.751C55.7848 417.61 50.6537 414.594 46.083 411.111C44.7463 410.085 42.6766 411.609 43.9702 412.635C48.2821 416.149 53.1546 419.259 57.8977 422.461C60.2261 424.047 62.5114 425.633 64.7105 427.312C65.7885 428.152 66.8665 429.023 67.8582 429.893C68.4188 430.36 68.8931 430.857 69.5399 431.168C74.8004 440.964 80.2765 450.728 85.882 460.43C86.3132 461.177 86.7444 461.923 87.1756 462.669C86.615 462.296 86.0114 461.923 85.4508 461.55C81.6132 459.155 77.6894 456.823 73.6793 454.584C72.5151 453.931 70.9197 455.051 72.0408 455.766C75.9215 458.098 79.7591 460.492 83.4242 463.011C85.2352 464.224 87.0031 465.468 88.771 466.743C89.2453 467.085 89.7627 467.489 90.2371 467.893C91.1426 469.417 92.0481 470.941 92.9536 472.496C95.4545 476.663 97.7829 480.985 101.06 484.872C101.922 485.96 104.639 485.214 104.078 483.846Z" fill="#7599D3"/>
<path d="M144.179 487.515C141.808 477.689 139.565 467.862 137.452 458.005C137.884 457.756 138.099 457.352 137.841 456.916C137.496 456.325 137.194 455.766 136.849 455.206C132.235 433.687 128.225 412.137 124.819 390.494C123.396 381.445 122.102 372.334 119.946 363.347C119.731 362.414 117.704 362.663 117.704 363.565C117.833 371.743 118.911 379.953 120.205 388.1C121.455 396.216 122.878 404.332 124.431 412.417C126.716 424.234 129.217 436.019 131.976 447.774C129.26 443.918 126.371 440.124 123.396 436.362C118.092 429.614 112.443 423.021 106.493 416.553C105.76 415.776 104.035 416.491 104.725 417.299C110.374 423.799 115.72 430.453 120.679 437.232C125.336 443.607 129.562 450.137 134.132 456.574C134.477 457.911 134.779 459.217 135.124 460.555C137.409 469.697 139.91 478.777 142.541 487.857C142.756 488.604 144.352 488.261 144.179 487.515Z" fill="#7599D3"/>
<path d="M228.735 411.329C226.709 411.733 224.898 412.697 223.13 413.475C221.233 414.283 219.336 415.092 217.438 415.931C214.291 417.331 211.186 418.792 208.038 420.222C209.418 416.304 210.884 412.417 212.436 408.53C213.773 405.234 215.196 401.969 216.619 398.673C218.042 395.407 219.767 392.173 220.457 388.784C220.758 387.385 218.258 386.39 217.093 387.758C214.894 390.401 213.558 393.293 212.221 396.216C210.841 399.139 209.591 402.093 208.426 405.078C207.736 406.82 207.047 408.592 206.4 410.334C205.667 408.406 204.848 406.478 204.158 404.581C202.95 401.254 201.743 397.895 200.492 394.568C200.191 393.697 198.38 394.07 198.638 394.941C199.63 398.331 200.622 401.72 201.614 405.078C202.605 408.375 203.209 411.92 204.632 415.123C203.726 417.673 202.907 420.222 202.088 422.772C198.38 434.651 195.749 446.654 194.068 458.751C193.119 465.654 192.515 472.589 192.084 479.555C191.998 481.265 195.706 481.265 195.793 479.555C196.914 460.399 200.881 441.244 207.176 422.555C207.219 422.555 207.262 422.524 207.348 422.524C211.272 421.093 215.282 419.694 219.206 418.201C221.06 417.486 222.871 416.771 224.725 416.056C226.666 415.309 228.865 414.656 230.46 413.537C231.754 412.573 230.417 410.987 228.735 411.329Z" fill="#7599D3"/>
<path d="M258.444 453.309C252.063 455.672 245.595 457.942 239.256 460.368C245.12 452.874 251.028 445.317 255.641 437.388C256.418 436.019 253.442 435.273 252.451 436.424C245.638 444.042 240.205 452.314 234.729 460.461C232.012 464.504 229.339 468.577 226.709 472.682C224.078 476.849 220.844 480.829 217.869 484.872C217.222 485.774 219.12 486.582 219.766 485.681C222.699 481.638 225.458 477.44 228.692 473.522C231.322 470.35 233.909 467.147 236.454 463.944C237.014 464.193 237.704 464.255 238.437 463.975C245.767 461.27 252.925 458.285 260.169 455.424C262.109 454.677 260.385 452.594 258.444 453.309Z" fill="#7599D3"/>
<path d="M881.947 432.475C889.967 420.596 897.125 408.25 900.1 395.221C903.076 382.192 901.566 368.292 892.986 356.63C891.218 354.205 888.631 351.655 884.836 351.313C879.877 350.877 876.126 354.391 873.625 357.501C855.774 379.611 841.501 403.213 831.153 427.686C834.516 408.935 836.37 390.059 836.715 371.152C837.017 353.801 834.99 334.645 818.088 322.269C812.568 318.226 804.591 315.054 797.045 316.64C787.473 318.662 783.765 326.84 781.609 333.837C771.993 365.368 764.965 397.336 760.567 429.458C748.148 401.938 733.402 372.21 699.337 356.91C696.103 355.48 692.395 354.143 688.687 354.765C682.564 355.791 680.537 361.264 679.804 365.742C675.794 390.432 676.786 415.558 682.78 440.031C676.226 429.956 668.507 419.01 654.235 414.719C652.165 414.097 649.837 413.63 647.681 414.097C643.282 415.029 642.032 419.01 641.644 422.306C639.962 435.678 639.617 449.142 640.48 462.576C640.738 466.587 641.17 470.692 643.455 474.362C647.982 481.607 658.762 485.65 669.111 488.417C713.955 500.358 763.757 498.741 810.585 495.321C847.495 492.646 867.502 453.869 881.947 432.475Z" fill="#394A66"/>
<path d="M816.148 483.846C817.743 480.021 820.158 476.383 822.314 472.744C822.874 471.78 823.435 470.847 824.038 469.883C823.866 469.604 823.866 469.262 824.081 468.92C824.383 468.484 824.858 468.049 825.375 467.676C826.496 465.81 827.617 463.975 828.695 462.109C830.463 459.155 832.188 456.17 833.956 453.185C833.869 452.967 833.783 452.718 833.74 452.501C833.611 451.785 833.481 451.07 833.395 450.355C833.223 448.707 833.05 447.028 832.791 445.379C832.317 442.114 831.196 438.756 831.757 435.491C831.886 434.713 833.438 434.185 834.042 435.055C836.112 438.041 836.327 441.586 836.629 444.882C836.715 445.97 836.802 447.09 836.845 448.178C838.397 445.504 839.949 442.798 841.458 440.124C847.236 430.018 852.799 419.849 858.275 409.681C858.232 409.65 858.188 409.619 858.145 409.587C856.981 408.033 857.154 405.98 857.024 404.239C856.895 402.187 856.852 400.134 856.766 398.082C856.593 394.101 856.205 389.997 856.938 386.047C857.11 385.052 859.525 385.052 859.698 386.047C860.474 389.997 860.172 394.101 860.172 398.082C860.172 400.041 860.215 402 860.172 403.959C860.172 404.612 860.215 405.296 860.215 406.011C862.026 402.653 863.794 399.295 865.605 395.936C870.089 387.54 874.53 379.175 878.799 370.717C879.144 370.002 880.74 370.282 880.395 371.028C872.375 388.846 863.751 406.509 854.523 424.016C856.119 422.897 857.8 421.808 859.482 420.751C864.441 417.61 869.572 414.594 874.142 411.111C875.479 410.085 877.549 411.609 876.255 412.635C871.943 416.149 867.071 419.258 862.328 422.461C859.999 424.047 857.714 425.633 855.515 427.312C854.437 428.152 853.359 429.023 852.367 429.893C851.807 430.36 851.333 430.857 850.686 431.168C845.425 440.964 839.949 450.728 834.344 460.43C833.913 461.176 833.481 461.923 833.05 462.669C833.611 462.296 834.214 461.923 834.775 461.55C838.613 459.155 842.536 456.823 846.546 454.584C847.711 453.931 849.306 455.05 848.185 455.766C844.304 458.098 840.467 460.492 836.802 463.011C834.991 464.224 833.223 465.468 831.455 466.743C830.98 467.085 830.463 467.489 829.989 467.893C829.083 469.417 828.178 470.941 827.272 472.496C824.771 476.663 822.443 480.985 819.166 484.872C818.304 485.96 815.544 485.214 816.148 483.846Z" fill="#7599D3"/>
<path d="M776.047 487.515C778.418 477.689 780.661 467.862 782.773 458.005C782.342 457.756 782.127 457.352 782.385 456.916C782.73 456.325 783.032 455.766 783.377 455.206C787.991 433.687 792.001 412.137 795.407 390.494C796.83 381.445 798.124 372.334 800.28 363.347C800.495 362.414 802.522 362.663 802.522 363.565C802.393 371.743 801.315 379.953 800.021 388.1C798.771 396.216 797.348 404.332 795.795 412.417C793.51 424.234 791.009 436.019 788.25 447.774C790.966 443.918 793.855 440.124 796.83 436.362C802.134 429.614 807.782 423.021 813.733 416.553C814.466 415.776 816.191 416.491 815.501 417.299C809.852 423.799 804.505 430.453 799.547 437.232C794.89 443.607 790.664 450.137 786.094 456.574C785.749 457.911 785.447 459.217 785.102 460.555C782.817 469.697 780.316 478.777 777.685 487.857C777.47 488.604 775.874 488.261 776.047 487.515Z" fill="#7599D3"/>
<path d="M691.49 411.329C693.516 411.733 695.327 412.697 697.095 413.475C698.993 414.283 700.89 415.092 702.787 415.931C705.935 417.331 709.039 418.792 712.187 420.222C710.807 416.304 709.341 412.417 707.789 408.53C706.452 405.234 705.029 401.969 703.606 398.673C702.183 395.407 700.459 392.173 699.769 388.784C699.467 387.385 701.968 386.39 703.132 387.758C705.331 390.401 706.668 393.293 708.004 396.216C709.384 399.139 710.635 402.093 711.799 405.078C712.489 406.82 713.179 408.592 713.825 410.334C714.558 408.406 715.378 406.478 716.068 404.581C717.275 401.254 718.482 397.895 719.733 394.568C720.035 393.697 721.846 394.07 721.587 394.941C720.595 398.331 719.603 401.72 718.612 405.078C717.62 408.375 717.016 411.92 715.593 415.123C716.499 417.673 717.318 420.222 718.137 422.772C721.846 434.651 724.476 446.654 726.157 458.751C727.106 465.654 727.71 472.589 728.141 479.555C728.227 481.265 724.519 481.265 724.433 479.555C723.312 460.399 719.345 441.244 713.049 422.555C713.006 422.555 712.963 422.524 712.877 422.524C708.953 421.093 704.943 419.694 701.019 418.201C699.165 417.486 697.354 416.771 695.5 416.056C693.56 415.309 691.361 414.656 689.765 413.537C688.428 412.573 689.765 410.987 691.49 411.329Z" fill="#7599D3"/>
<path d="M661.781 453.309C668.163 455.672 674.631 457.942 680.969 460.368C675.105 452.874 669.198 445.317 664.584 437.388C663.808 436.019 666.783 435.273 667.775 436.424C674.587 444.042 680.02 452.314 685.497 460.461C688.213 464.504 690.886 468.577 693.517 472.682C696.147 476.849 699.381 480.829 702.356 484.872C703.003 485.774 701.106 486.582 700.459 485.681C697.527 481.638 694.767 477.44 691.533 473.522C688.903 470.35 686.316 467.147 683.772 463.944C683.211 464.193 682.521 464.255 681.788 463.975C674.458 461.27 667.3 458.285 660.056 455.424C658.116 454.677 659.798 452.594 661.781 453.309Z" fill="#7599D3"/>
<path d="M536.735 432.475C544.756 420.596 551.913 408.25 554.889 395.221C557.864 382.192 556.355 368.292 547.774 356.63C546.006 354.205 543.419 351.655 539.624 351.313C534.666 350.877 530.914 354.391 528.413 357.501C510.562 379.611 496.29 403.213 485.941 427.686C489.304 408.935 491.158 390.059 491.503 371.152C491.805 353.801 489.779 334.645 472.876 322.269C467.357 318.226 459.38 315.054 451.834 316.64C442.261 318.662 438.553 326.84 436.397 333.837C426.782 365.368 419.753 397.336 415.355 429.458C402.937 401.938 388.19 372.21 354.126 356.91C350.892 355.48 347.184 354.143 343.475 354.765C337.353 355.791 335.326 361.264 334.593 365.742C330.583 390.432 331.575 415.558 337.568 440.031C331.014 429.956 323.296 419.01 309.023 414.719C306.954 414.097 304.625 413.63 302.469 414.097C298.071 415.029 296.821 419.01 296.432 422.306C294.751 435.678 294.406 449.142 295.268 462.576C295.527 466.587 295.958 470.692 298.244 474.362C302.771 481.607 313.551 485.65 323.899 488.417C368.743 500.358 418.546 498.741 465.373 495.321C502.24 492.646 522.29 453.869 536.735 432.475Z" fill="#394A66"/>
<path d="M470.893 483.846C472.488 480.021 474.903 476.383 477.059 472.744C477.619 471.78 478.18 470.847 478.784 469.883C478.611 469.604 478.611 469.262 478.827 468.92C479.129 468.484 479.603 468.049 480.12 467.676C481.241 465.81 482.362 463.975 483.44 462.109C485.208 459.155 486.933 456.17 488.701 453.185C488.615 452.967 488.528 452.718 488.485 452.501C488.356 451.785 488.227 451.07 488.14 450.355C487.968 448.707 487.795 447.028 487.537 445.379C487.062 442.114 485.941 438.756 486.502 435.491C486.631 434.713 488.184 434.185 488.787 435.055C490.857 438.041 491.073 441.586 491.374 444.882C491.461 445.97 491.547 447.09 491.59 448.178C493.142 445.504 494.695 442.798 496.204 440.124C501.982 430.018 507.544 419.849 513.02 409.681C512.977 409.65 512.934 409.619 512.891 409.587C511.727 408.033 511.899 405.98 511.77 404.239C511.64 402.187 511.597 400.134 511.511 398.082C511.339 394.101 510.951 389.997 511.684 386.047C511.856 385.052 514.271 385.052 514.443 386.047C515.219 389.997 514.917 394.101 514.917 398.082C514.917 400.041 514.961 402 514.917 403.959C514.917 404.612 514.961 405.296 514.961 406.011C516.772 402.653 518.539 399.295 520.35 395.936C524.835 387.54 529.276 379.175 533.545 370.717C533.89 370.002 535.485 370.282 535.14 371.028C527.12 388.846 518.496 406.509 509.269 424.016C510.864 422.897 512.546 421.808 514.228 420.751C519.186 417.61 524.317 414.594 528.888 411.111C530.225 410.085 532.295 411.609 531.001 412.635C526.689 416.149 521.817 419.258 517.073 422.461C514.745 424.047 512.46 425.633 510.261 427.312C509.183 428.152 508.105 429.023 507.113 429.893C506.552 430.36 506.078 430.857 505.431 431.168C500.171 440.964 494.695 450.728 489.089 460.43C488.658 461.176 488.227 461.923 487.795 462.669C488.356 462.296 488.96 461.923 489.52 461.55C493.358 459.155 497.282 456.823 501.292 454.584C502.456 453.931 504.051 455.05 502.93 455.766C499.05 458.098 495.212 460.492 491.547 463.011C489.736 464.224 487.968 465.468 486.2 466.743C485.726 467.085 485.208 467.489 484.734 467.893C483.829 469.417 482.923 470.941 482.017 472.496C479.517 476.663 477.188 480.985 473.911 484.872C473.049 485.96 470.332 485.214 470.893 483.846Z" fill="#7599D3"/>
<path d="M430.793 487.515C433.164 477.689 435.406 467.862 437.519 458.005C437.088 457.756 436.872 457.352 437.131 456.916C437.476 456.325 437.778 455.766 438.123 455.206C442.736 433.687 446.747 412.137 450.153 390.494C451.576 381.445 452.869 372.334 455.025 363.347C455.241 362.414 457.268 362.663 457.268 363.565C457.138 371.743 456.06 379.953 454.767 388.1C453.516 396.216 452.093 404.332 450.541 412.417C448.256 424.234 445.755 436.019 442.995 447.774C445.712 443.918 448.601 440.124 451.576 436.362C456.879 429.614 462.528 423.021 468.478 416.553C469.211 415.776 470.936 416.491 470.246 417.299C464.598 423.799 459.251 430.453 454.292 437.232C449.636 443.607 445.41 450.137 440.839 456.574C440.494 457.911 440.192 459.217 439.848 460.555C437.562 469.697 435.061 478.777 432.431 487.857C432.215 488.604 430.62 488.261 430.793 487.515Z" fill="#7599D3"/>
<path d="M346.235 411.329C348.262 411.733 350.073 412.697 351.841 413.475C353.738 414.283 355.635 415.092 357.532 415.931C360.68 417.331 363.785 418.792 366.932 420.222C365.552 416.304 364.086 412.417 362.534 408.53C361.197 405.234 359.775 401.969 358.352 398.673C356.929 395.407 355.204 392.173 354.514 388.784C354.212 387.385 356.713 386.39 357.877 387.758C360.076 390.401 361.413 393.293 362.75 396.216C364.13 399.139 365.38 402.093 366.544 405.078C367.234 406.82 367.924 408.592 368.571 410.334C369.304 408.406 370.123 406.478 370.813 404.581C372.02 401.254 373.228 397.895 374.478 394.568C374.78 393.697 376.591 394.07 376.332 394.941C375.34 398.331 374.349 401.72 373.357 405.078C372.365 408.375 371.762 411.92 370.339 415.123C371.244 417.673 372.063 420.222 372.883 422.772C376.591 434.651 379.221 446.654 380.903 458.751C381.851 465.654 382.455 472.589 382.886 479.555C382.973 481.265 379.264 481.265 379.178 479.555C378.057 460.399 374.09 441.244 367.795 422.555C367.752 422.555 367.708 422.524 367.622 422.524C363.698 421.093 359.688 419.694 355.764 418.201C353.91 417.486 352.099 416.771 350.245 416.056C348.305 415.309 346.106 414.656 344.51 413.537C343.174 412.573 344.51 410.987 346.235 411.329Z" fill="#7599D3"/>
<path d="M316.526 453.309C322.908 455.672 329.376 457.942 335.714 460.368C329.85 452.874 323.943 445.317 319.329 437.388C318.553 436.019 321.528 435.273 322.52 436.424C329.333 444.042 334.766 452.314 340.242 460.461C342.959 464.504 345.632 468.577 348.262 472.682C350.892 476.849 354.126 480.829 357.102 484.872C357.748 485.774 355.851 486.582 355.204 485.681C352.272 481.638 349.513 477.44 346.279 473.522C343.648 470.35 341.061 467.147 338.517 463.944C337.957 464.193 337.267 464.255 336.534 463.975C329.203 461.27 322.046 458.285 314.802 455.424C312.861 454.677 314.586 452.594 316.526 453.309Z" fill="#7599D3"/>
<path d="M731.461 432.475C739.482 420.596 746.639 408.25 749.615 395.221C752.59 382.192 751.081 368.292 742.5 356.63C740.732 354.205 738.145 351.655 734.35 351.313C729.392 350.877 725.64 354.391 723.139 357.501C705.288 379.611 691.016 403.213 680.667 427.686C684.03 408.935 685.884 390.059 686.229 371.152C686.531 353.801 684.505 334.645 667.602 322.269C662.083 318.226 654.106 315.054 646.56 316.64C636.987 318.662 633.279 326.84 631.123 333.837C621.508 365.368 614.479 397.336 610.081 429.458C597.663 401.938 582.916 372.21 548.852 356.91C545.618 355.48 541.91 354.143 538.201 354.765C532.078 355.791 530.052 361.264 529.319 365.742C525.309 390.432 526.3 415.558 532.294 440.031C525.74 429.956 518.022 419.01 503.749 414.719C501.679 414.097 499.351 413.63 497.195 414.097C492.797 415.029 491.546 419.01 491.158 422.306C489.477 435.678 489.132 449.142 489.994 462.576C490.253 466.587 490.684 470.692 492.969 474.362C497.497 481.607 508.277 485.65 518.625 488.417C563.469 500.358 613.272 498.741 660.099 495.321C696.966 492.646 717.016 453.869 731.461 432.475Z" fill="#394A66"/>
<path d="M665.619 483.846C667.214 480.021 669.629 476.383 671.785 472.744C672.345 471.78 672.906 470.847 673.509 469.883C673.337 469.604 673.337 469.262 673.553 468.92C673.854 468.484 674.329 468.049 674.846 467.676C675.967 465.81 677.088 463.975 678.166 462.109C679.934 459.155 681.659 456.17 683.427 453.185C683.341 452.967 683.254 452.718 683.211 452.501C683.082 451.785 682.953 451.07 682.866 450.355C682.694 448.707 682.521 447.028 682.263 445.379C681.788 442.114 680.667 438.756 681.228 435.491C681.357 434.713 682.909 434.185 683.513 435.055C685.583 438.041 685.798 441.586 686.1 444.882C686.186 445.97 686.273 447.09 686.316 448.178C687.868 445.504 689.42 442.798 690.93 440.124C696.708 430.018 702.27 419.849 707.746 409.681C707.703 409.65 707.66 409.619 707.617 409.587C706.452 408.033 706.625 405.98 706.496 404.239C706.366 402.187 706.323 400.134 706.237 398.082C706.064 394.101 705.676 389.997 706.409 386.047C706.582 385.052 708.997 385.052 709.169 386.047C709.945 389.997 709.643 394.101 709.643 398.082C709.643 400.041 709.686 402 709.643 403.959C709.643 404.612 709.686 405.296 709.686 406.011C711.497 402.653 713.265 399.295 715.076 395.936C719.561 387.54 724.002 379.175 728.271 370.717C728.616 370.002 730.211 370.282 729.866 371.028C721.846 388.846 713.222 406.509 703.995 424.016C705.59 422.897 707.272 421.808 708.953 420.751C713.912 417.61 719.043 414.594 723.614 411.111C724.951 410.085 727.02 411.609 725.727 412.635C721.415 416.149 716.542 419.258 711.799 422.461C709.471 424.047 707.186 425.633 704.986 427.312C703.908 428.152 702.83 429.023 701.839 429.893C701.278 430.36 700.804 430.857 700.157 431.168C694.897 440.964 689.42 450.728 683.815 460.43C683.384 461.176 682.952 461.923 682.521 462.669C683.082 462.296 683.686 461.923 684.246 461.55C688.084 459.155 692.008 456.823 696.018 454.584C697.182 453.931 698.777 455.05 697.656 455.766C693.775 458.098 689.938 460.492 686.273 463.011C684.462 464.224 682.694 465.468 680.926 466.743C680.452 467.085 679.934 467.489 679.46 467.893C678.554 469.417 677.649 470.941 676.743 472.496C674.242 476.663 671.914 480.985 668.637 484.872C667.775 485.96 665.058 485.214 665.619 483.846Z" fill="#7599D3"/>
<path d="M625.518 487.515C627.889 477.689 630.131 467.862 632.244 458.005C631.813 457.756 631.597 457.352 631.856 456.916C632.201 456.325 632.503 455.766 632.848 455.206C637.462 433.687 641.472 412.137 644.878 390.494C646.301 381.445 647.595 372.334 649.751 363.347C649.966 362.414 651.993 362.663 651.993 363.565C651.863 371.743 650.785 379.953 649.492 388.1C648.241 396.216 646.818 404.332 645.266 412.417C642.981 424.234 640.48 436.019 637.72 447.774C640.437 443.918 643.326 440.124 646.301 436.362C651.605 429.614 657.253 423.021 663.204 416.553C663.937 415.776 665.662 416.491 664.972 417.299C659.323 423.799 653.976 430.453 649.018 437.232C644.361 443.607 640.135 450.137 635.564 456.574C635.219 457.911 634.918 459.217 634.573 460.555C632.287 469.697 629.786 478.777 627.156 487.857C626.941 488.604 625.345 488.261 625.518 487.515Z" fill="#7599D3"/>
<path d="M540.961 411.329C542.988 411.733 544.799 412.697 546.567 413.475C548.464 414.283 550.361 415.092 552.258 415.931C555.406 417.331 558.51 418.792 561.658 420.222C560.278 416.304 558.812 412.417 557.26 408.53C555.923 405.234 554.5 401.969 553.077 398.673C551.655 395.407 549.93 392.173 549.24 388.784C548.938 387.385 551.439 386.39 552.603 387.758C554.802 390.401 556.139 393.293 557.476 396.216C558.855 399.139 560.106 402.093 561.27 405.078C561.96 406.82 562.65 408.592 563.297 410.334C564.03 408.406 564.849 406.478 565.539 404.581C566.746 401.254 567.953 397.895 569.204 394.568C569.506 393.697 571.317 394.07 571.058 394.941C570.066 398.331 569.075 401.72 568.083 405.078C567.091 408.375 566.487 411.92 565.065 415.123C565.97 417.673 566.789 420.222 567.608 422.772C571.317 434.651 573.947 446.654 575.629 458.751C576.577 465.654 577.181 472.589 577.612 479.555C577.698 481.265 573.99 481.265 573.904 479.555C572.783 460.399 568.816 441.244 562.52 422.555C562.477 422.555 562.434 422.524 562.348 422.524C558.424 421.093 554.414 419.694 550.49 418.201C548.636 417.486 546.825 416.771 544.971 416.056C543.031 415.309 540.832 414.656 539.236 413.537C537.9 412.573 539.236 410.987 540.961 411.329Z" fill="#7599D3"/>
<path d="M511.252 453.309C517.633 455.672 524.101 457.942 530.44 460.368C524.576 452.874 518.668 445.317 514.055 437.388C513.278 436.019 516.254 435.273 517.245 436.424C524.058 444.042 529.491 452.314 534.967 460.461C537.684 464.504 540.357 468.577 542.987 472.682C545.618 476.849 548.851 480.829 551.827 484.872C552.473 485.774 550.576 486.582 549.929 485.681C546.997 481.638 544.238 477.44 541.004 473.522C538.374 470.35 535.786 467.147 533.242 463.944C532.682 464.193 531.992 464.255 531.259 463.975C523.929 461.27 516.771 458.285 509.527 455.424C507.587 454.677 509.312 452.594 511.252 453.309Z" fill="#7599D3"/>
<path d="M450.756 529.589C686.825 529.589 878.196 514.845 878.196 496.658C878.196 478.47 686.825 463.727 450.756 463.727C214.687 463.727 23.3159 478.47 23.3159 496.658C23.3159 514.845 214.687 529.589 450.756 529.589Z" fill="#F48E69"/>
<path d="M450.756 529.589C686.825 529.589 878.196 514.845 878.196 496.658C878.196 478.47 686.825 463.727 450.756 463.727C214.687 463.727 23.3159 478.47 23.3159 496.658C23.3159 514.845 214.687 529.589 450.756 529.589Z" fill="#F48E69"/>
<path d="M180.658 495.538C246.932 499.798 314.37 494.201 377.54 479.213C383.016 477.907 388.88 476.321 392.028 472.807C394.313 470.226 394.701 467.054 395.003 464.038V464.007C377.712 464.193 360.723 464.442 344.122 464.753C340.371 468.111 336.275 471.283 331.488 473.864C317.69 481.327 299.71 483.193 282.591 484.53C245.293 487.484 204.934 488.666 173.155 474.299C171.689 473.646 170.007 472.838 168.153 471.936C148.318 473.273 130.165 474.766 113.866 476.383C118.695 491.589 164.79 494.512 180.658 495.538Z" fill="#4C3129"/>
<path d="M484.734 520.26C592.992 520.26 680.753 513.494 680.753 505.147C680.753 496.8 592.992 490.034 484.734 490.034C376.475 490.034 288.714 496.8 288.714 505.147C288.714 513.494 376.475 520.26 484.734 520.26Z" fill="#FFE100"/>
<path d="M143.101 469.604C143.101 469.604 123.999 481.669 124.214 488.884C124.473 496.098 165.738 493.921 170.136 490.594C174.534 487.267 165.393 469.604 165.393 469.604C165.393 469.604 149.741 464.939 143.101 469.604Z" fill="#440136"/>
<path d="M371.675 462.669C371.675 462.669 363.785 477.129 367.45 478C371.115 478.839 436.785 481.203 433.336 478C429.886 474.797 414.018 468.08 399.962 464.131L391.295 456.948L371.675 462.669Z" fill="#440136"/>
<path d="M177.338 335.454L165.437 391.054C165.437 391.054 135.253 398.766 143.101 469.604H165.437C165.437 469.604 191.998 389.282 228.649 340.242C228.606 340.242 189.195 324.756 177.338 335.454Z" fill="#FEC000"/>
<path d="M177.337 335.454L171.602 362.352C176.302 364.995 181.477 367.172 187.039 368.696C193.938 370.593 201.441 371.432 208.814 371.09C214.98 360.175 221.621 349.634 228.649 340.242C228.606 340.242 189.195 324.756 177.337 335.454Z" fill="#440136"/>
<path d="M299.494 323.139C300.83 325.689 327.349 377.092 327.349 377.092C327.349 377.092 315.793 389.935 327.349 404.426C338.905 418.916 371.718 462.638 371.718 462.638L391.381 456.916L327.392 304.264L299.494 323.139Z" fill="#FEC000"/>
<path d="M327.306 304.264L299.451 323.139C300.141 324.445 307.428 338.594 314.37 352.059C324.719 350.318 334.636 347.208 343.476 342.948L327.306 304.264Z" fill="#440136"/>
<path d="M176.044 264.833L165.437 346.151C165.437 346.151 193.766 367.825 235.635 356.288L262.67 303.206L287.895 344.067C287.895 344.067 353.307 341.175 362.103 310.545L311.309 245.678C311.309 245.678 196.784 250.405 176.044 264.833Z" fill="#4DA8BB"/>
<path d="M234.039 299.972C232.789 297.267 231.538 294.562 230.331 291.856C230.116 291.359 229.857 290.83 229.253 290.55C228.649 290.239 227.83 290.301 227.054 290.332C209.03 291.607 190.705 290.83 173.026 288.062L171.301 301.403C174.578 301.652 177.855 301.838 181.175 302.025C180.227 309.27 179.278 316.485 178.329 323.73C177.769 327.928 177.208 332.095 176.691 336.293L175.829 342.73C175.699 343.756 175.57 344.782 175.44 345.778C175.354 346.368 175.484 347.954 175.182 348.887C175.096 348.918 174.966 348.949 174.88 349.012C174.837 349.043 174.751 349.074 174.707 349.105C174.319 349.323 174.061 349.634 174.233 349.976C174.449 350.442 174.707 350.629 175.354 350.815C175.699 350.908 176.173 350.784 176.389 350.629C177.855 349.571 177.467 347.177 177.64 345.809C177.941 343.57 178.243 341.331 178.545 339.061C179.149 334.458 179.752 329.887 180.356 325.285C181.391 317.573 182.383 309.861 183.418 302.18C191.222 302.553 199.07 302.74 206.874 302.709C215.972 302.647 225.416 302.336 234.039 299.972Z" fill="#440136"/>
<path d="M180.959 91.222L175.914 115.135L210.625 112.523L202.734 95.2956L180.959 91.222Z" fill="#FEC000"/>
<path d="M207.521 105.682L202.777 95.3267L180.959 91.222L178.717 101.795C187.427 105.153 197.646 106.553 207.521 105.682Z" fill="#440136"/>
<path d="M217.309 71.6934C217.309 71.6934 233.349 102.603 216.619 104.034C199.889 105.464 173.586 105.122 178.113 76.0469C178.113 76.0469 201.441 56.8915 217.309 71.6934Z" fill="#FEC000"/>
<path d="M165.436 90.4136C165.479 91.6574 165.824 92.9013 166.601 93.9897C167.42 95.1091 168.67 96.0109 170.05 96.7572C171.689 97.6279 173.5 98.281 175.526 98.4986C178.89 98.9029 182.468 97.9389 184.668 96.042C188.591 92.6836 185.228 85.6869 179.795 83.9766C172.551 81.6755 165.178 84.4431 165.436 90.4136Z" fill="#FEC000"/>
<path d="M176.389 83.6033C177.898 87.8947 179.795 92.0927 182.081 96.1974C183.676 94.5493 185.314 92.9012 186.91 91.2531C186.996 91.1909 187.039 91.0665 186.996 91.0043C186.91 90.9421 186.694 91.0665 186.824 91.0976C186.306 90.911 186.867 90.2891 186.651 89.9159C185.271 87.8014 184.064 85.6557 183.072 83.4479C182.598 82.3906 182.124 81.4266 182.167 80.3071C189.368 82.0174 196.482 81.1467 204.028 80.6803C200.406 80.3071 196.914 79.4986 193.68 78.2548C207.047 78.317 220.457 76.3579 232.789 72.6263C229.21 72.7818 224.984 72.9062 221.362 73.0306C228.865 69.4545 236.195 65.6918 243.396 61.8047C233.349 61.6182 221.017 62.0846 211.1 63.0486C214.118 59.4414 214.937 57.0159 217.956 53.4087C208.383 56.6738 199.544 61.1206 191.955 66.4692C191.955 66.6558 190.101 66.9046 190.101 66.7491C190.187 63.5772 191.912 60.5298 194.326 57.8555C188.16 60.9651 182.684 64.79 178.157 69.1435C176.906 70.3252 175.742 71.6001 175.268 73.0306C175.526 73.6525 175.095 75.3939 175.354 76.0158C172.724 76.3268 170.137 76.8865 167.636 77.6017C167.463 77.6639 167.291 77.695 167.204 77.8194C167.032 78.006 167.248 78.2548 167.463 78.4413C169.662 80.3071 173.759 81.893 176.389 83.6033Z" fill="#440136"/>
<path d="M479.43 48.2467C476.8 49.3973 199.673 110.813 199.673 110.813L128.526 117.654C117.272 118.742 107.484 123.811 102.526 131.212L24.3506 247.14C24.3506 247.14 168.929 302.523 235.634 293.162V286.663C235.634 286.663 215.627 281.19 192.515 271.986C223.604 270.586 297.554 265.238 311.309 245.709C311.309 245.709 301.995 193.094 279.961 161.127L375.039 104.5C375.039 104.5 420.4 115.882 472.833 67.4643L482.664 58.4463L479.43 48.2467ZM110.503 228.544L150.431 192.161L176.087 264.958C157.459 256.375 119.903 240.454 110.503 228.544Z" fill="#FEC000"/>
<path d="M281.513 160.163L374.995 104.469C374.995 104.469 420.357 115.85 472.79 67.4332L477.576 63.0797C421.866 82.515 257.323 137.12 281.513 160.163Z" fill="#440136"/>
<path d="M149.439 193.063L150.474 192.13L176.087 264.834C181.865 267.632 188.074 270.369 192.559 271.955C198.293 271.706 205.537 271.302 213.558 270.711C200.837 238.744 179.968 208.456 152.242 181.868C151.035 185.569 150.129 189.3 149.439 193.063Z" fill="#440136"/>
<path d="M110.503 228.544L119.041 220.77C101.922 225.341 73.4205 232.711 73.4205 232.711L139.048 247.606C126.457 241.169 115.117 234.359 110.503 228.544Z" fill="#440136"/>
<path d="M202.605 167.315C195.275 166.973 188.074 168.092 181.606 170.549C181.045 170.673 180.528 170.922 179.967 171.295C179.234 171.824 179.752 172.975 180.873 172.881C185.271 172.57 189.669 172.104 194.067 171.513C197.344 171.078 201.699 170.891 203.726 168.714C204.33 168.092 203.511 167.346 202.605 167.315Z" fill="#440136"/>
<path d="M273.838 157.426C266.508 157.084 259.307 158.204 252.839 160.66C252.278 160.785 251.761 161.033 251.201 161.407C250.467 161.935 250.985 163.086 252.106 162.993C256.504 162.682 260.902 162.215 265.3 161.624C268.577 161.189 272.933 161.002 274.959 158.826C275.563 158.173 274.744 157.457 273.838 157.426Z" fill="#440136"/>
<path d="M229.511 171.389C211.056 180.655 187.298 183.734 165.522 179.567C163.927 179.256 163.237 181.06 164.833 181.371C187.211 185.662 211.789 182.552 230.805 173.006C232.185 172.322 230.891 170.705 229.511 171.389Z" fill="#440136"/>
<path d="M287.377 160.909C275.951 166.724 262.153 169.554 248.225 168.932C246.544 168.87 246.587 170.736 248.225 170.798C262.584 171.42 276.942 168.497 288.714 162.526C290.051 161.842 288.757 160.225 287.377 160.909Z" fill="#440136"/>
<path d="M404.187 155.187C402.506 155.187 402.506 157.053 404.187 157.053C405.826 157.053 405.869 155.187 404.187 155.187Z" fill="#440136"/>
<path d="M204.503 110.44C202.864 112.99 201.614 115.602 200.751 118.307C196.095 115.757 191.093 113.643 185.789 111.901C184.539 111.497 183.417 112.834 184.711 113.238C190.273 115.042 195.448 117.281 200.277 119.955C200.277 119.986 200.277 119.986 200.277 120.017C200.018 120.981 202.088 121.417 202.347 120.422C203.166 117.219 204.46 114.14 206.357 111.186C206.917 110.315 205.063 109.538 204.503 110.44Z" fill="#440136"/>
<path d="M273.019 238.464C267.241 234.546 264.223 229.041 264.784 223.32C264.87 222.325 262.714 222.325 262.628 223.32C262.067 229.415 265.344 235.385 271.51 239.552C272.502 240.236 274.054 239.148 273.019 238.464Z" fill="#440136"/>
<path d="M283.626 293.504C277.891 296.925 272.458 300.594 267.284 304.482C274.442 291.11 265.861 276.433 264.395 262.75C264.309 261.755 262.11 261.755 262.239 262.75C263.705 276.495 272.803 291.67 264.654 305.01C260.902 292.789 257.625 280.506 254.909 268.13C254.693 267.135 252.623 267.57 252.839 268.534C255.512 280.693 258.703 292.82 262.411 304.824C255.211 302.087 248.915 298.293 243.956 293.629C243.137 292.851 241.24 293.629 242.102 294.406C247.449 299.444 254.176 303.518 262.023 306.41C262.368 306.534 262.67 306.534 262.929 306.441C263.058 306.783 263.144 307.156 263.274 307.498C263.36 307.747 263.619 307.933 263.921 307.995C264.266 308.338 264.999 308.524 265.516 308.089C271.639 303.238 278.193 298.729 285.178 294.531C286.213 293.971 284.704 292.883 283.626 293.504Z" fill="#440136"/>
<path d="M356.713 319.626C355.247 318.164 353.824 316.64 352.573 315.085C350.547 312.598 348.994 309.892 347.313 307.28C345.459 304.388 343.303 301.652 341.147 298.853C336.835 293.287 332.48 287.721 328.125 282.185C324.201 277.179 320.363 272.141 316.008 267.29C311.74 262.564 306.565 257.402 305.703 251.618C305.574 250.622 303.375 250.622 303.547 251.618C304.28 256.406 307.686 260.729 311.179 264.74C315.189 269.343 319.156 273.914 322.907 278.671C327.349 284.3 331.747 289.959 336.145 295.619C340.414 301.092 344.381 306.565 348.089 312.256C349.727 314.774 351.625 317.2 353.867 319.47C354.427 320.061 355.031 320.621 355.635 321.211C355.764 321.336 355.894 321.491 356.066 321.616C355.98 321.833 356.066 322.082 356.325 322.3C356.713 322.611 357.316 323.171 358.006 323.139C358.524 323.108 359.171 322.797 359.084 322.362C358.912 321.367 357.489 320.403 356.713 319.626Z" fill="#440136"/>
<path d="M240.766 301.558C240.852 302.087 240.938 302.647 241.369 303.082C241.714 303.455 242.318 303.704 242.879 303.922C246.458 305.29 250.856 306.067 253.012 308.555C253.486 309.084 253.874 309.737 254.65 309.986C255.685 310.359 256.936 309.923 257.798 309.364C260.859 307.373 261.377 304.046 260.859 301.092C260.342 298.138 259.005 295.246 259.091 292.292C259.135 291.234 259.264 290.022 258.186 289.306C257.712 288.995 257.065 288.84 256.418 288.716C254.521 288.311 252.58 288.032 250.64 287.814C251.546 286.788 250.381 285.326 248.786 284.891C247.191 284.455 245.423 284.704 243.784 284.984C240.895 285.451 238.006 285.917 235.117 286.414C234.255 286.539 233.392 286.694 232.703 287.068C231.28 287.814 230.935 289.275 231.409 290.519C232.358 292.976 234.902 293.349 237.101 294.997C239.386 296.676 240.378 299.257 240.766 301.558Z" fill="#FEC000"/>
<path d="M518.712 29.5888C519.229 33.4758 514.357 36.4611 510.174 38.9177C505.517 41.6542 501.119 44.6084 496.98 47.7802C495.859 48.6509 494.738 49.5527 494.263 50.7033C493.832 51.8538 494.306 53.2532 495.772 53.7818C496.549 54.0617 497.454 54.0617 498.316 54.0617C500.904 54.0306 503.448 54.0306 506.035 53.9995C506.725 53.9995 507.415 53.9995 507.932 54.3105C508.794 54.808 508.536 55.8653 507.76 56.3939C506.983 56.9226 505.819 57.1091 504.741 57.2024C499.222 57.8244 493.616 57.9177 488.14 58.6951C482.19 59.5658 478.051 62.2712 472.574 63.5461C460.544 66.3137 463.562 55.3988 468.737 51.3874C473.566 47.6869 481.931 46.1321 487.752 43.3334C497.885 38.5135 507.113 32.6984 518.712 29.5888Z" fill="#FEC000"/>
<path d="M97.1361 257.028C92.2636 263.216 89.6333 270.12 89.4608 277.241C89.4177 278.236 91.5737 278.236 91.6168 277.241C91.7893 270.4 94.2902 263.745 98.9902 257.806C99.6801 256.935 97.7829 256.158 97.1361 257.028Z" fill="#440136"/>
<path d="M107.743 266.171C104.983 272.172 103.56 278.423 103.603 284.735C103.603 285.73 105.759 285.73 105.759 284.735C105.759 278.547 107.139 272.452 109.856 266.606C110.287 265.642 108.217 265.238 107.743 266.171Z" fill="#440136"/>
<path d="M118.394 268.752C115.289 275.531 114.858 282.745 117.143 289.711C117.445 290.675 119.558 290.27 119.213 289.306C117.057 282.621 117.488 275.717 120.463 269.187C120.938 268.192 118.825 267.788 118.394 268.752Z" fill="#440136"/>
<path d="M130.898 277.894C129.993 283.118 129.777 288.342 130.251 293.598C130.338 294.593 132.494 294.593 132.407 293.598C131.933 288.342 132.149 283.118 133.054 277.894C133.227 276.899 131.071 276.93 130.898 277.894Z" fill="#440136"/>
<path d="M213.212 130.59C203.511 131.678 194.024 133.513 184.883 136.094C183.59 136.467 184.15 137.96 185.444 137.587C194.585 135.006 204.071 133.171 213.773 132.083C215.153 131.927 214.549 130.435 213.212 130.59Z" fill="#440136"/>
<path d="M221.707 131.927C210.841 134.197 200.363 137.214 190.316 140.945C189.066 141.412 190.187 142.749 191.394 142.282C201.269 138.613 211.617 135.659 222.268 133.42C223.604 133.14 223.044 131.647 221.707 131.927Z" fill="#440136"/>
<path d="M219.81 140.759C210.841 142.189 202.002 144.055 193.378 146.325C192.084 146.667 192.645 148.16 193.938 147.817C202.562 145.547 211.402 143.682 220.37 142.251C221.75 142.065 221.146 140.541 219.81 140.759Z" fill="#440136"/>
<path d="M224.553 147.6L204.718 149.714C203.338 149.87 203.942 151.362 205.279 151.207L225.114 149.092C226.493 148.968 225.89 147.444 224.553 147.6Z" fill="#440136"/>
<path d="M379.825 76.2024C375.686 72.5952 371.244 69.2057 366.415 66.096C365.38 65.443 363.871 66.5314 364.906 67.1844C369.735 70.3251 374.176 73.6836 378.316 77.2907C379.178 78.0682 380.688 76.9798 379.825 76.2024Z" fill="#440136"/>
<path d="M395.65 74.3054C390.907 71.6 385.818 69.2367 380.429 67.2465C379.178 66.8112 378.1 68.1483 379.351 68.5837C384.611 70.4806 389.527 72.7506 394.14 75.3938C395.218 76.0157 396.771 74.9273 395.65 74.3054Z" fill="#440136"/>
<path d="M411.604 70.9781C406.774 67.6197 400.694 65.5984 394.054 65.0387C392.674 64.9143 392.674 66.4691 394.054 66.5935C400.134 67.0911 405.696 69.0501 410.094 72.0976C411.086 72.7817 412.595 71.6622 411.604 70.9781Z" fill="#440136"/>
<path d="M429.671 63.0486C426.825 61.7114 423.979 60.3432 421.133 59.006C419.969 58.4463 418.891 59.8145 420.055 60.3432C422.901 61.6803 425.747 63.0486 428.593 64.3857C429.757 64.9454 430.835 63.6083 429.671 63.0486Z" fill="#440136"/>
<path d="M176.647 433.097C168.929 433.097 161.34 432.101 154.139 430.111C152.846 429.738 152.285 431.262 153.579 431.604C160.952 433.656 168.757 434.651 176.691 434.651C178.027 434.651 178.027 433.097 176.647 433.097Z" fill="#440136"/>
<path d="M186.09 427.095H165.307C163.927 427.095 163.927 428.65 165.307 428.65H186.09C187.47 428.65 187.47 427.095 186.09 427.095Z" fill="#440136"/>
<path d="M182.296 420.285H162.461C161.081 420.285 161.081 421.84 162.461 421.84H182.296C183.675 421.84 183.675 420.285 182.296 420.285Z" fill="#440136"/>
<path d="M182.641 412.075C176.777 411.049 170.697 411.329 165.048 412.884C163.755 413.226 164.315 414.75 165.609 414.377C170.912 412.915 176.518 412.604 182.037 413.568C183.417 413.786 183.978 412.293 182.641 412.075Z" fill="#440136"/>
<path d="M360.636 395.003C353.953 396.247 347.571 398.206 341.664 400.787C340.5 401.316 341.578 402.653 342.742 402.124C348.52 399.606 354.686 397.709 361.197 396.496C362.534 396.278 361.973 394.754 360.636 395.003Z" fill="#440136"/>
<path d="M368.182 399.046C361.671 400.445 355.592 402.591 350.116 405.483C348.994 406.074 350.072 407.411 351.194 406.82C356.54 403.99 362.404 401.876 368.743 400.539C370.08 400.259 369.519 398.766 368.182 399.046Z" fill="#440136"/>
<path d="M376.677 407.815C369.864 408.872 363.439 410.863 357.661 413.661C356.497 414.221 357.575 415.558 358.739 414.998C364.388 412.262 370.597 410.334 377.238 409.308C378.574 409.09 378.014 407.598 376.677 407.815Z" fill="#440136"/>
<path d="M381.722 416.895C374.176 417.455 367.018 419.103 360.421 421.84C359.214 422.337 360.292 423.674 361.499 423.177C367.708 420.596 374.564 418.979 381.679 418.45C383.102 418.357 383.145 416.802 381.722 416.895Z" fill="#440136"/>
<path d="M386.163 429.178C383.016 429.863 379.868 430.547 376.72 431.231C375.384 431.511 375.944 433.003 377.281 432.723C380.429 432.039 383.576 431.355 386.724 430.671C388.061 430.391 387.5 428.899 386.163 429.178Z" fill="#440136"/>
<path d="M708.652 451.381L697.829 459.373L715.551 476.072L748.795 475.357C748.795 475.357 738.447 465.499 729.392 463.726L719.345 456.388L708.652 451.381Z" fill="#440136"/>
<path d="M712.058 335.796L757.29 382.254C757.29 382.254 735.558 391.925 735.213 405.265C734.911 418.606 708.652 451.381 708.652 451.381L719.345 456.388L820.287 387.82L771.735 335.796C771.735 335.796 720.553 321.274 712.058 335.796Z" fill="#FFC39A"/>
<path d="M770.786 388.473C765.44 384.648 757.807 380.015 750.434 375.226L757.29 382.254C757.29 382.254 735.558 391.925 735.213 405.265C735.17 406.851 734.782 408.748 734.049 410.8C744.613 402.031 757.031 394.444 770.786 388.473Z" fill="#440136"/>
<path d="M771.735 335.796C771.735 335.796 720.553 321.305 712.058 335.796L742.285 366.861C755.091 359.678 767.682 352.277 780.014 344.689L771.735 335.796Z" fill="#440136"/>
<path d="M651.131 348.949C651.131 348.949 653.589 395.221 660.531 390.681C667.43 386.141 678.814 352.743 673.726 344.316C668.637 335.889 652.769 341.486 652.769 341.486L651.131 348.949Z" fill="#440136"/>
<path d="M662.902 344.347C661.393 342.606 658.763 341.548 655.917 341.58C645.698 341.704 619.74 341.984 591.238 341.517C554.458 340.926 528.241 349.198 528.241 349.198L554.458 330.882L586.84 321.429L563.038 294.406C434.802 333.743 446.056 383.56 446.056 383.56L657.642 353.054C663.118 352.277 665.834 347.799 662.902 344.347Z" fill="#FFC39A"/>
<path d="M530.139 345.187C530.57 345.778 531.001 346.368 531.389 346.99L554.458 330.882L586.84 321.429L563.039 294.406C537.167 302.336 516.987 310.701 501.205 319.004C513.106 326.249 522.981 335.205 530.139 345.187Z" fill="#440136"/>
<path d="M588.651 279.169L500.171 315.863L550.189 344.254L633.021 314.65L660.962 317.013L719.302 358.372L782.041 342.917L707.66 268.068L588.651 279.169Z" fill="#4DA8BB"/>
<path d="M596.758 120.701C597.318 120.67 599.69 120.795 603.484 121.074C629.097 123.127 719.647 133.358 757.29 155.312L793.769 191.228C793.769 191.228 804.549 174.965 823.737 171.389C842.925 167.812 866.252 148.999 866.252 148.999L879.231 151.953C879.231 151.953 841.718 245.243 808.602 247.917C775.444 250.56 744.01 220.645 744.01 220.645L711.843 275.531C711.843 275.531 657.125 301.714 588.695 279.169C588.695 279.169 569.765 232.12 589.6 185.413L461.234 122.474L588.048 46.3808L602.967 53.7818C602.967 53.7818 582.701 70.947 577.484 83.0746C572.266 95.2022 567.221 103.878 539.668 114.389" fill="#FFC39A"/>
<path d="M655.184 142.593C655.27 143.308 655.356 144.024 655.874 144.646C656.607 145.547 658.073 146.014 659.496 146.263C664.799 147.196 670.534 145.921 674.975 143.651C679.46 141.381 682.866 138.209 686.057 135.006C686.704 134.353 687.308 133.731 687.911 133.078C676.7 130.808 665.446 128.88 654.882 127.263C654.494 132.363 654.623 137.493 655.184 142.593Z" fill="#440136"/>
<path d="M463.865 120.888L461.234 122.474L589.557 185.413C589.169 186.346 588.781 187.279 588.393 188.243C591.411 183.516 594.645 178.883 598.095 174.312C555.795 153.539 510.778 135.628 463.865 120.888Z" fill="#440136"/>
<path d="M797.132 197.074C800.625 192.037 806.403 188.056 812.051 184.169C820.46 178.416 828.868 172.664 837.276 166.942C832.749 168.963 828.092 170.611 823.65 171.42C804.462 174.996 793.683 191.259 793.683 191.259L784.498 182.21C784.929 191.259 788.034 200.215 793.596 208.331C793.51 204.444 794.717 200.557 797.132 197.074Z" fill="#440136"/>
<path d="M695.026 281.501C705.676 278.454 711.799 275.531 711.799 275.531L743.966 220.645C743.966 220.645 745.691 222.294 748.796 224.812C745.303 217.38 742.845 209.731 741.551 201.956C728.012 229.041 712.446 255.598 695.026 281.501Z" fill="#440136"/>
<path d="M766.561 353.458C752.461 339.807 739.396 325.596 727.452 310.918C729.651 311.54 731.936 312.007 734.394 312.287C735.73 312.442 736.334 310.95 734.954 310.794C731.548 310.39 728.443 309.644 725.554 308.586C722.881 305.259 720.251 301.869 717.707 298.48C713.567 293.007 709.6 287.472 705.806 281.874C705.202 280.973 703.348 281.75 703.952 282.652C709.6 290.892 715.551 299.04 721.889 307C715.594 303.984 710.592 299.599 706.452 294.81C707.703 294.5 708.91 294.189 710.161 293.847C711.454 293.504 710.894 291.981 709.6 292.354C708.177 292.727 706.754 293.1 705.331 293.473C702.96 290.612 700.89 287.658 698.95 284.797C698.346 283.896 696.492 284.673 697.096 285.575C698.95 288.342 700.976 291.203 703.262 293.971C688.817 297.36 673.639 299.071 658.461 299.04C658.461 297.205 658.461 295.339 658.461 293.504C658.461 292.509 656.305 292.509 656.305 293.504C656.305 295.339 656.305 297.174 656.305 299.009C649.492 298.915 642.679 298.48 635.91 297.64C635.737 294.437 635.737 291.234 635.867 288.031C635.91 287.036 633.754 287.036 633.711 288.031C633.581 291.11 633.538 294.251 633.667 297.36C632.503 297.205 631.382 297.049 630.218 296.863C623.621 295.868 615.385 294.935 610.944 290.923C610.081 290.146 608.572 291.234 609.434 292.012C613.272 295.464 619.438 296.614 625.13 297.609C627.976 298.107 630.865 298.542 633.797 298.915C634.012 302.429 634.444 305.912 635.177 309.364C635.78 312.256 639.144 312.162 642.55 312.38C647.509 312.66 652.467 312.629 657.426 312.349C657.987 312.318 658.504 312.007 658.504 311.571C658.504 307.902 658.504 304.233 658.504 300.563C668.077 300.594 677.692 299.941 687.092 298.604C692.999 297.765 698.777 296.676 704.469 295.308C709.557 301.216 715.852 306.596 724.174 309.737C732.195 319.719 740.689 329.452 749.701 338.967C754.573 344.098 759.618 349.167 764.793 354.174C765.526 355.044 767.423 354.267 766.561 353.458ZM656.219 310.918C652.467 311.105 648.673 311.136 644.922 311.012C643.8 310.981 642.722 310.918 641.601 310.856C640.61 310.794 639.057 310.887 638.195 310.545C636.6 309.892 636.901 307.498 636.729 306.347C636.384 304.015 636.125 301.652 635.953 299.288C639.057 299.662 642.162 299.941 645.267 300.159C648.932 300.408 652.554 300.563 656.219 300.626C656.219 304.046 656.219 307.498 656.219 310.918Z" fill="#440136"/>
<path d="M614.739 187.497C612.152 186.191 609.478 185.102 606.589 184.2C606.029 184.014 605.511 184.2 605.209 184.449C604.908 184.418 604.563 184.418 604.218 184.449C603.183 184.511 602.709 185.475 603.657 185.911C606.805 187.341 610.211 188.367 613.877 188.896C615.127 189.083 615.731 187.994 614.739 187.497Z" fill="#440136"/>
<path d="M691.49 199.78C691.404 199.531 691.188 199.344 690.8 199.251L688.774 198.754C686.963 198.163 685.108 197.696 683.211 197.354C682.349 197.136 681.486 196.919 680.581 196.701C679.891 196.515 679.244 196.981 679.201 197.447C678.899 197.852 679.072 198.38 679.848 198.474C680.063 198.505 680.279 198.536 680.538 198.567C683.556 200.153 687.006 201.055 690.843 201.179C691.878 201.21 692.223 200.215 691.49 199.78Z" fill="#440136"/>
<path d="M617.023 203.076C605.942 203.667 593.265 204.195 584.641 198.194C583.649 197.51 582.097 198.598 583.132 199.282C592.187 205.595 605.338 205.253 617.023 204.631C618.403 204.568 618.403 203.014 617.023 203.076Z" fill="#440136"/>
<path d="M698.648 216.541C682.78 217.318 664.066 215.825 654.666 205.253C653.933 204.413 652.036 205.191 652.812 206.03C662.643 217.1 681.961 218.935 698.648 218.095C700.028 218.002 700.071 216.447 698.648 216.541Z" fill="#440136"/>
<path d="M699.424 115.26C697.484 107.579 681.4 113.301 681.4 113.301C681.4 113.301 671.095 100.706 656.952 111.186C654.494 113.021 652.942 115.384 652.64 117.934C651.691 125.117 650.958 140.759 662.773 140.665C678.123 140.541 685.238 136.312 688.386 123.376C688.386 123.376 701.365 122.94 699.424 115.26Z" fill="#FFC39A"/>
<path d="M670.923 118.649C674.545 117.716 677.822 116.13 680.754 114.358C681.659 113.829 682.522 113.269 683.341 112.71C682.134 113.052 681.357 113.332 681.357 113.332C681.357 113.332 671.052 100.737 656.909 111.217C654.451 113.052 652.942 115.415 652.597 117.934C658.289 119.862 665.058 120.204 670.923 118.649Z" fill="#440136"/>
<path d="M688.903 109.258C688.343 107.143 687.351 105.06 685.971 103.132C685.109 101.95 684.074 100.737 682.435 100.116C681.055 99.5869 679.46 99.4625 677.908 99.4936C676.097 99.4936 674.156 99.5869 672.302 99.8046C668.637 100.209 665.317 101.515 662.643 103.35C661.954 103.816 661.134 104.189 660.186 104.345C658.418 104.687 656.391 104.345 655.011 103.443C654.58 103.163 654.235 102.852 653.718 102.697C653.287 102.541 652.769 102.541 652.252 102.572C650.613 102.728 647.81 103.505 647.552 104.687C646.646 108.263 649.061 112.181 653.33 114.109C656.995 115.757 661.522 115.975 665.834 115.944C670.922 115.913 676.01 115.446 680.279 113.425C681.271 114.98 680.926 116.814 680.969 118.525C681.012 119.364 681.185 120.235 681.961 120.888C682.478 121.323 683.254 121.572 684.031 121.448C685.54 121.261 686.057 119.924 686.187 118.836C686.445 116.845 686.488 114.855 686.316 112.865C688.256 112.212 689.291 110.751 688.903 109.258Z" fill="#FEC000"/>
<path d="M866.381 151.891C866.166 146.263 862.673 140.728 856.895 136.965C856.766 136.872 856.593 136.747 856.593 136.623C856.593 136.467 856.809 136.343 856.982 136.281C858.232 135.752 859.87 136.001 861.078 136.592C862.285 137.183 863.061 138.115 863.751 139.017C863.924 139.235 864.139 139.484 864.441 139.577C864.743 139.67 865.045 139.608 865.39 139.608C866.123 139.608 866.856 139.826 867.33 140.23C866.166 136.84 866.554 133.731 867.158 130.248C867.244 129.719 867.459 129.097 868.149 128.911C869.313 128.631 870.003 129.813 870.133 130.683C870.521 133.544 870.909 136.405 871.297 139.266C872.332 136.996 873.367 134.726 874.402 132.456C874.703 131.772 875.048 131.057 875.824 130.621C876.601 130.186 877.98 130.248 878.368 130.87C878.541 131.119 878.498 131.43 878.498 131.71C878.239 134.259 877.506 136.778 876.299 139.204C877.98 136.934 880.395 134.912 883.327 133.42C883.888 133.14 884.491 132.86 885.138 132.953C885.957 133.047 886.475 133.731 886.432 134.322C886.389 134.912 886.001 135.472 885.569 136.001C884.017 138.022 882.465 140.074 880.913 142.096C882.637 141.256 884.664 140.728 886.777 140.634C887.251 140.603 887.725 140.603 888.113 140.759C889.148 141.132 889.105 142.251 888.415 142.935C887.725 143.588 886.647 143.962 885.656 144.397C882.724 145.796 881.085 148.191 879.964 150.585C879.36 151.829 878.886 153.135 877.937 154.286C876.989 155.405 875.479 156.4 873.625 156.525C870.909 156.773 866.425 153.975 866.381 151.891Z" fill="#FFC39A"/>
<path d="M578.691 50.4234C586.754 46.1321 592.23 39.4152 593.48 32.232C593.524 32.0454 593.567 31.8277 593.782 31.7344C593.998 31.61 594.343 31.6722 594.558 31.7655C596.24 32.3253 597.102 33.7557 597.102 35.0928C597.102 36.43 596.369 37.7049 595.55 38.9177C595.378 39.2287 595.162 39.5396 595.248 39.8506C595.335 40.1305 595.636 40.3481 595.895 40.5969C596.456 41.1566 596.628 41.903 596.413 42.556C600.509 39.1665 605.295 37.2074 610.814 35.0928C611.634 34.7819 612.712 34.4709 613.488 34.8752C614.738 35.5282 613.574 36.9275 612.367 37.6738C608.486 40.0683 604.605 42.4627 600.724 44.8882C604.778 44.0175 608.874 43.1157 612.927 42.245C614.134 41.9962 615.428 41.7164 616.635 41.9962C617.843 42.2761 618.791 43.3334 618.145 44.1108C617.886 44.4218 617.455 44.6394 617.023 44.826C613.143 46.5052 608.917 47.8113 604.519 48.682C609.09 48.2777 613.79 48.6509 618.101 49.7393C618.921 49.9569 619.783 50.2057 620.128 50.7654C620.559 51.4807 619.999 52.3203 619.093 52.7556C618.188 53.191 617.11 53.2843 616.032 53.3464C611.935 53.6574 607.839 53.9684 603.743 54.3104C606.244 54.9946 608.486 56.1762 610.168 57.6688C610.556 58.0109 610.901 58.353 610.987 58.7883C611.202 59.8456 609.521 60.6541 608.055 60.623C606.589 60.5919 605.252 60.0322 603.872 59.6279C599.69 58.4463 594.947 58.9749 590.678 59.8767C588.436 60.3742 586.193 60.9651 583.822 61.0584C581.493 61.1827 578.949 60.7163 577.397 59.4414C574.939 57.4512 575.716 52.0093 578.691 50.4234Z" fill="#FFC39A"/>
<path d="M622.801 185.475L547.472 108.512L461.406 100.862L375.298 114.451C375.298 114.451 350.547 180.562 402.333 260.356H507.242L536.175 197.696L566.747 219.588C575.802 226.087 588.867 228.731 601.242 226.585C626.596 222.231 637.807 200.806 622.801 185.475Z" fill="#FF777F"/>
<path d="M551.914 184.978C555.752 180.344 563.643 178.354 571.102 177.608C572.913 177.421 574.81 177.297 576.578 177.67C578.777 178.137 580.502 179.349 582.184 180.5C582.96 181.029 583.779 181.682 583.779 182.459C583.779 183.299 582.874 183.952 582.011 184.48C575.328 188.616 567.48 191.881 559.072 193.84C556.01 194.555 552.388 195.333 550.793 192.752C549.327 190.451 550.189 187.061 551.914 184.978Z" fill="#440136"/>
<path d="M594.904 198.629C586.883 198.038 578.173 199.593 572.697 203.853C568.342 207.243 566.488 211.907 565.798 216.51C565.669 217.256 565.626 218.002 565.539 218.78L566.704 219.619C575.759 226.119 588.824 228.762 601.199 226.616C614.695 224.284 624.182 217.132 627.847 208.611C624.57 207.025 621.12 205.657 617.584 204.351C610.47 201.646 602.924 199.22 594.904 198.629Z" fill="#440136"/>
<path d="M603.484 189.238C610.426 188.274 617.239 191.073 624.31 191.446C625.259 191.508 626.208 191.508 627.156 191.415C626.078 189.362 624.612 187.372 622.758 185.475L617.023 179.598C590.074 184.916 563.728 191.726 537.426 198.629L545.748 204.6C561.227 200.93 577.828 199.313 591.842 193.343C595.636 191.726 599.258 189.829 603.484 189.238Z" fill="#440136"/>
<path d="M534.062 160.567C519.488 178.168 517.202 199.5 515.823 219.961C515.564 223.693 517.849 227.114 521.126 230.285L536.175 197.696L538.115 199.096C531.906 186.844 530.311 173.348 534.062 160.567Z" fill="#440136"/>
<path d="M448.212 114.762C451.446 117.467 457.612 117.156 461.881 115.384C466.409 113.487 469.686 110.315 471.842 106.832C472.79 105.278 473.567 103.629 474.17 101.981L461.407 100.862L442.909 103.785C443.556 106.584 444.634 109.351 446.1 112.026C446.66 112.958 447.264 113.954 448.212 114.762Z" fill="#440136"/>
<path d="M573.861 350.971L538.892 354.951L507.199 260.387C507.199 260.387 420.616 254.758 402.29 260.387C402.29 260.387 281.859 336.822 280.737 347.022C279.616 357.221 353.781 465.064 353.781 465.064L367.278 464.162C367.278 464.162 373.099 399.139 348.779 387.882L343.088 358.403L440.063 293.1C440.063 293.1 505 400.943 541.479 395.874C577.958 390.805 671.224 354.92 671.224 354.92V348.732C671.224 348.763 586.711 339.465 573.861 350.971Z" fill="#440136"/>
<path d="M324.46 311.82C301.003 328.084 281.212 342.917 280.781 347.021C279.659 357.19 353.824 465.064 353.824 465.064L367.321 464.162C367.321 464.162 373.142 399.139 348.822 387.882L343.131 358.403L368.571 341.269C365.854 334.801 361.715 328.675 355.678 323.544C347.831 316.951 336.447 312.224 324.46 311.82Z" fill="#FF777F"/>
<path d="M345.33 370.002L343.088 358.434L356.67 349.292C343.735 350.318 330.928 352.028 318.381 354.422C327.349 359.647 336.318 364.84 345.33 370.002Z" fill="#440136"/>
<path d="M573.861 350.971L538.892 354.951L531.777 333.774C516.772 343.228 495.686 347.737 476.024 345.156C496.98 371.93 522.895 398.486 541.393 395.905C577.872 390.836 671.138 354.951 671.138 354.951V348.763C671.225 348.763 586.711 339.465 573.861 350.971Z" fill="#FF777F"/>
<path d="M539.064 365.431C551.957 362.725 564.677 359.74 577.267 356.413C577.612 356.319 578 356.195 578.13 355.946C578.345 355.573 577.914 355.2 577.483 354.92C575.888 353.769 574.551 352.463 573.516 351.002L538.892 354.92L536.822 348.732C536.779 354.36 537.512 359.958 539.064 365.431Z" fill="#440136"/>
<path d="M524.964 214.271C516.081 206.808 515.435 196.048 516.642 186.253C519.488 162.651 547.515 108.512 547.515 108.512L526.646 106.646C521.946 118.649 518.28 130.87 515.65 143.184C514.831 146.978 514.098 150.834 511.942 154.348C508.363 160.101 501.076 164.361 493.013 166.786C484.949 169.212 476.067 169.927 467.314 170.083C449.376 170.363 431.568 168.279 413.846 166.196C404.748 165.107 395.305 163.957 387.716 160.194C385.775 159.23 383.964 158.079 383.016 156.556C382.024 154.97 382.067 153.135 382.196 151.394C383.059 137.898 386.595 124.526 392.674 111.746L375.34 114.482C375.34 114.482 350.59 180.593 402.376 260.387H507.285L527.723 216.168C526.689 215.577 525.783 214.955 524.964 214.271Z" fill="#B9F4FF"/>
<path d="M387.458 225.061C380.817 200.464 377.454 175.4 377.411 150.336C377.368 138.116 378.144 125.926 379.696 113.767L377.497 114.109C374.608 137.152 374.479 160.349 377.238 183.423C379.308 200.868 382.973 218.189 388.191 235.292C390.045 239.148 392.071 243.066 394.27 247.015C391.726 239.739 389.441 232.4 387.458 225.061Z" fill="#8CBDC4"/>
<path d="M387.63 112.523C387.242 117.125 387.026 121.728 386.854 126.33C387.587 123.998 388.406 121.665 389.312 119.364C389.441 116.97 389.614 114.575 389.786 112.181L387.63 112.523Z" fill="#8CBDC4"/>
<path d="M398.668 211.565C394.313 194.929 391.381 178.074 389.958 161.158C389.182 160.847 388.449 160.505 387.716 160.163C388.104 165.014 388.622 169.834 389.268 174.654C392.2 196.701 397.547 218.624 405.395 240.05C407.896 246.86 410.612 253.639 413.588 260.356H415.83C408.715 244.372 402.98 228.078 398.668 211.565Z" fill="#8CBDC4"/>
<path d="M407.206 182.988C405.567 176.862 403.929 170.705 402.29 164.547C401.514 164.423 400.738 164.268 400.005 164.112C408.413 195.955 417.253 227.767 426.566 259.485C426.652 259.765 426.739 260.045 426.825 260.356H429.024C421.435 234.639 414.191 208.829 407.206 182.988Z" fill="#8CBDC4"/>
<path d="M429.585 182.459C428.507 177.515 427.472 172.57 426.394 167.626C425.661 167.533 424.928 167.471 424.152 167.377C429.714 193.218 435.277 219.06 440.839 244.901C441.96 250.063 443.038 255.225 444.159 260.387H446.315C440.753 234.39 435.147 208.425 429.585 182.459Z" fill="#8CBDC4"/>
<path d="M455.801 190.109C454.206 183.299 452.438 176.488 450.454 169.709C449.721 169.678 448.945 169.616 448.212 169.585C455.974 195.893 460.717 222.667 462.269 249.534C462.485 253.141 462.614 256.748 462.743 260.387H464.899C464.209 236.847 461.191 213.338 455.801 190.109Z" fill="#8CBDC4"/>
<path d="M487.537 259.734C487.839 233.177 486.2 206.59 482.578 180.158C482.061 176.52 481.543 172.85 480.983 169.212C480.293 169.305 479.56 169.367 478.87 169.461C482.406 191.912 484.518 214.488 485.208 237.064C485.424 244.621 485.51 252.177 485.424 259.734C485.424 260.045 485.64 260.262 485.898 260.387H487.062C487.321 260.262 487.537 260.045 487.537 259.734Z" fill="#8CBDC4"/>
<path d="M504.871 161.313C504.181 161.78 503.534 162.215 502.801 162.62C504.612 189.487 503.448 216.447 499.179 243.159C498.273 248.912 497.195 254.665 495.988 260.387H498.144C503.706 233.675 506.25 206.621 505.69 179.598C505.604 173.472 505.302 167.377 504.871 161.313Z" fill="#8CBDC4"/>
<path d="M513.495 201.677C514.184 179.536 517.375 157.302 525.654 135.939C529.319 126.454 534.192 117.188 537.383 107.61L535.227 107.423C532.467 115.602 528.5 123.531 525.18 131.585C520.739 142.282 517.548 153.228 515.349 164.268C511.037 186.16 510.649 208.362 511.684 230.441C511.942 236.411 512.33 242.413 512.761 248.384L514.616 244.341C513.667 230.13 513.063 215.919 513.495 201.677Z" fill="#8CBDC4"/>
<path d="M484.691 86.4021C482.751 78.7213 466.667 84.443 466.667 84.443C466.667 84.443 456.362 71.8489 442.219 82.3285C439.761 84.1631 438.209 86.5265 437.907 89.0764C436.958 96.2597 436.225 111.901 448.04 111.808C463.39 111.684 470.505 107.454 473.653 94.5183C473.653 94.5183 486.632 94.0829 484.691 86.4021Z" fill="#FF777F"/>
<path d="M456.189 89.7605C459.811 88.8276 463.088 87.2417 466.02 85.4692C466.926 84.9405 467.788 84.3808 468.608 83.8211C467.4 84.1631 466.624 84.443 466.624 84.443C466.624 84.443 456.319 71.849 442.175 82.3284C439.718 84.1631 438.208 86.5265 437.864 89.0453C443.555 90.9732 450.325 91.3153 456.189 89.7605Z" fill="#440136"/>
<path d="M474.17 80.3693C473.609 78.2548 472.618 76.1713 471.238 74.2433C470.375 73.0617 469.341 71.8489 467.702 71.227C466.322 70.6983 464.727 70.574 463.174 70.6051C461.363 70.6051 459.423 70.6983 457.569 70.916C453.904 71.3203 450.584 72.6263 447.91 74.461C447.22 74.9275 446.401 75.3006 445.452 75.4561C443.685 75.7982 441.658 75.4561 440.278 74.5543C439.847 74.2744 439.502 73.9635 438.985 73.808C438.553 73.6525 438.036 73.6525 437.519 73.6836C435.88 73.8391 433.077 74.6165 432.819 75.7982C431.913 79.3743 434.328 83.2924 438.596 85.2204C442.262 86.8685 446.789 87.0862 451.101 87.0551C456.189 87.024 461.277 86.5575 465.546 84.5363C466.538 86.0911 466.193 87.9258 466.236 89.6361C466.279 90.4757 466.452 91.3464 467.228 91.9994C467.745 92.4348 468.521 92.6836 469.297 92.5592C470.807 92.3726 471.324 91.0354 471.453 89.9471C471.712 87.9569 471.755 85.9667 471.583 83.9765C473.523 83.3235 474.558 81.862 474.17 80.3693Z" fill="#2C3E50"/>
<path d="M484.605 124.06C462.054 123.314 439.416 123.438 416.865 124.402C415.485 124.464 415.442 126.05 416.865 125.988C439.416 125.024 462.01 124.931 484.605 125.646C486.028 125.677 486.028 124.091 484.605 124.06Z" fill="#440136"/>
<path d="M482.492 131.896C461.579 130.435 440.537 130.217 419.581 131.274C418.201 131.336 418.158 132.922 419.581 132.86C440.537 131.803 461.579 131.989 482.492 133.482C483.872 133.575 483.872 132.021 482.492 131.896Z" fill="#440136"/>
<path d="M480.638 137.245C456.663 134.881 432.387 134.57 408.284 136.405C406.904 136.498 406.861 138.084 408.284 137.991C432.129 136.188 456.275 136.436 480.034 138.8C481.457 138.893 482.061 137.369 480.638 137.245Z" fill="#440136"/>
<path d="M485.683 142.656C459.725 141.94 433.724 141.909 407.723 142.593C406.3 142.624 406.3 144.21 407.723 144.179C433.681 143.495 459.682 143.526 485.683 144.241C487.106 144.273 487.106 142.718 485.683 142.656Z" fill="#440136"/>
<path d="M491.073 151.114C463.045 149.155 434.888 148.129 406.731 148.035C405.308 148.035 405.308 149.621 406.731 149.621C434.888 149.714 463.045 150.741 491.073 152.7C492.496 152.793 492.452 151.207 491.073 151.114Z" fill="#440136"/>
<path d="M343.993 416.926C336.059 416.709 328.298 418.263 321.701 421.435C320.536 421.995 321.614 423.363 322.822 422.804C329.117 419.787 336.447 418.295 344.036 418.512C345.416 418.543 345.416 416.957 343.993 416.926Z" fill="#440136"/>
<path d="M334.076 409.836C326.487 410.645 319.028 411.858 311.654 413.412C310.318 413.692 310.878 415.216 312.258 414.936C319.631 413.381 327.091 412.2 334.68 411.36C336.06 411.205 335.456 409.681 334.076 409.836Z" fill="#440136"/>
<path d="M328.772 398.859C320.191 398.735 311.783 400.165 304.194 403.057C302.944 403.524 304.065 404.892 305.315 404.426C312.602 401.658 320.58 400.321 328.815 400.445C330.195 400.476 330.195 398.89 328.772 398.859Z" fill="#440136"/>
<path d="M321.27 392.018C314.327 393.324 307.342 394.661 300.4 395.967C299.02 396.216 299.624 397.74 301.004 397.491C307.946 396.185 314.931 394.848 321.873 393.542C323.21 393.293 322.649 391.769 321.27 392.018Z" fill="#440136"/>
<path d="M312.43 385.052C305.358 386.39 298.545 388.349 292.121 390.899C290.87 391.396 291.991 392.764 293.242 392.267C299.494 389.779 306.091 387.882 313.033 386.576C314.413 386.327 313.81 384.804 312.43 385.052Z" fill="#440136"/>
<path d="M578.389 389.437C572.956 387.012 568.601 383.622 565.712 379.517C565.065 378.615 563.168 379.424 563.815 380.326C566.876 384.679 571.533 388.255 577.268 390.805C578.475 391.334 579.553 389.966 578.389 389.437Z" fill="#440136"/>
<path d="M591.411 388.628C585.288 385.394 580.502 381.165 577.225 376.221C576.621 375.319 574.724 376.097 575.328 377.03C578.734 382.192 583.865 386.607 590.29 389.997C591.411 390.588 592.532 389.219 591.411 388.628Z" fill="#440136"/>
<path d="M604.907 384.12C599.992 381.445 595.594 378.305 591.756 374.791C590.894 373.982 589.341 375.133 590.204 375.91C594.171 379.517 598.698 382.72 603.786 385.488C604.907 386.079 605.985 384.71 604.907 384.12Z" fill="#440136"/>
<path d="M619.266 380.139C614.738 377.963 611.159 375.008 608.745 371.494C608.141 370.593 606.244 371.37 606.847 372.303C609.434 376.066 613.315 379.206 618.145 381.508C619.352 382.067 620.43 380.699 619.266 380.139Z" fill="#440136"/>
<path d="M631.77 372.738C629.916 370.406 628.062 368.105 626.208 365.773C625.518 364.902 623.621 365.679 624.311 366.581C626.165 368.913 628.019 371.215 629.873 373.547C630.606 374.418 632.46 373.64 631.77 372.738Z" fill="#440136"/>
<path d="M447.134 196.328C435.966 196.328 425.919 199.842 419.02 205.439C412.423 203.169 405.006 201.925 397.202 201.925C369.002 201.925 346.105 218.438 346.105 238.775C346.105 259.112 369.002 275.624 397.202 275.624C419.753 275.624 438.855 265.113 445.668 250.498C446.142 250.498 446.616 250.529 447.134 250.529C467.874 250.529 484.69 238.402 484.69 223.444C484.734 208.456 467.874 196.328 447.134 196.328Z" fill="#F39C26"/>
<path d="M439.243 245.771C440.062 245.554 440.838 245.305 441.7 245.181C442.692 245.056 443.684 245.056 444.676 245.056C446.745 245.087 448.858 245.118 450.885 244.776C453.989 244.279 456.835 242.911 458.689 241.014C458.991 240.734 459.293 240.392 459.724 240.267C460.069 240.174 460.5 240.205 460.845 240.236C462.872 240.392 464.985 240.267 466.968 239.925C467.572 239.801 468.305 239.521 468.176 239.086C468.089 238.775 467.572 238.65 467.184 238.557C464.597 237.997 462.01 237.469 459.422 236.909C463.217 236.66 467.27 236.349 470.375 234.732C470.677 234.577 470.935 234.421 471.108 234.172C471.496 233.644 471.021 232.991 470.332 232.649C469.642 232.338 468.779 232.276 467.96 232.213C465.33 232.058 462.743 231.902 460.112 231.747C462.398 231.467 464.64 231.125 466.882 230.69C467.658 230.534 468.521 230.285 468.65 229.757C468.736 229.477 468.564 229.197 468.348 228.979C467.572 228.171 466.02 228.015 464.64 228.015C458.56 227.953 452.48 229.01 447.134 231.094C443.684 232.431 440.45 234.235 436.656 234.95C434.5 235.354 432.171 235.447 430.317 236.318C428.247 237.282 427.126 239.117 427.212 240.889C427.342 242.662 428.549 244.341 430.317 245.616C430.619 245.802 430.921 246.051 430.921 246.331C430.964 247.077 429.713 247.513 430.058 248.259C433.12 248.041 436.44 246.549 439.243 245.771Z" fill="#440136"/>
<path d="M404.704 252.892C414.751 252.706 425.142 251.804 433.68 248.041C434.111 247.855 434.586 247.637 434.715 247.264C434.844 247.015 434.758 246.704 434.672 246.456C433.809 243.532 432.904 240.64 432.042 237.717C431.955 237.375 431.826 237.002 431.438 236.753C430.964 236.442 430.231 236.474 429.584 236.536C407.679 238.184 386.163 232.369 364.388 229.85C361.499 229.508 358.524 229.228 356.023 228.171C353.867 227.269 352.013 225.807 349.814 225.061C347.442 229.321 346.148 233.955 346.148 238.806C346.148 241.698 346.623 244.528 347.485 247.233C365.94 251.307 385.344 253.266 404.704 252.892Z" fill="#440136"/>
<path d="M483.224 215.857C483.526 217.256 483.699 218.686 483.699 220.148C483.699 235.105 466.882 247.233 446.142 247.233C445.668 247.233 445.15 247.233 444.676 247.202C437.906 261.817 418.761 272.328 396.21 272.328C372.667 272.328 352.789 260.822 346.925 245.181C351.15 262.47 372.063 275.624 397.245 275.624C419.796 275.624 438.898 265.113 445.711 250.498C446.185 250.498 446.659 250.529 447.177 250.529C467.917 250.529 484.734 238.402 484.734 223.444C484.734 220.801 484.173 218.251 483.224 215.857Z" fill="#FEC000"/>
<path d="M433.853 232.96C433.723 234.017 433.465 235.074 433.033 236.069C450.238 231.187 467.442 226.336 484.604 221.454C484.517 220.583 484.388 219.744 484.172 218.904L433.853 232.96Z" fill="#440136"/>
<path d="M661.091 161.313C653.675 158.888 646.301 157.893 638.885 154.441C637.505 153.788 635.823 153.104 634.098 154.441C633.754 154.721 633.452 155.063 633.193 155.405L625.647 166.196C625.345 166.631 625 167.097 624.354 167.222C623.965 167.315 623.577 167.253 623.189 167.16C619.998 166.507 617.842 164.454 615.471 162.775C613.099 161.127 609.607 159.696 606.588 160.723C602.708 162.029 602.19 166.258 601.63 168.87C601.026 171.513 599.862 174.529 599.819 177.235C599.776 183.672 612.97 185.911 619.438 188.15C620.343 188.461 621.335 188.803 622.37 188.709C623.06 188.647 623.707 188.429 624.31 188.181C626.38 187.403 628.45 186.595 630.52 185.817C630.218 184.48 628.45 183.672 626.898 182.894C625.173 182.024 623.405 180.531 624.698 179.069C625.345 178.385 626.466 178.012 627.587 178.012C634.185 178.137 638.712 182.179 644.62 183.889C645.482 184.138 646.474 184.356 647.379 184.169C648.457 183.983 649.233 183.299 649.923 182.677C654.408 178.696 658.892 172.228 663.376 167.222C665.36 165.169 664.239 162.371 661.091 161.313Z" fill="#754026"/>
<path d="M607.494 184.511L432.646 233.302L427.73 221.765L603.053 175.711L607.494 184.511Z" fill="#754026"/>
<path d="M379.428 234.612L370.193 237.043L378.118 252.701L387.353 250.27L379.428 234.612Z" fill="#754026"/>
<path d="M379.006 237.064L378.876 236.816L606.804 176.706L613.272 167.439L613.574 167.564L607.02 176.924L379.006 237.064Z" fill="white"/>
<path d="M379.006 239.335L378.876 239.117L610.124 176.706L621.206 165.667L621.465 165.791L610.34 176.924H610.297L379.006 239.335Z" fill="white"/>
<path d="M379.005 241.387L378.876 241.138L614.048 176.831L627.846 163.646L628.148 163.801L614.264 177.048H614.177L379.005 241.387Z" fill="white"/>
<path d="M384.352 244.776L384.223 244.528L610.253 180.624L623.75 184.511L623.62 184.76L610.253 180.904L384.352 244.776Z" fill="white"/>
<path d="M382.239 243.035L382.11 242.817L612.754 179.038L631.295 182.055L631.209 182.304L612.754 179.318L382.239 243.035Z" fill="white"/>
<path d="M380.385 241.511L380.256 241.294L615.557 177.079L638.109 180.376L638.065 180.593L615.6 177.328L380.385 241.511Z" fill="white"/>
<path d="M392.761 214.426C389.613 211.876 383.964 209.202 377.152 206.963C362.793 202.267 343.044 199.655 329.72 204.631L371.589 182.988C364.992 142.003 375.297 114.451 375.297 114.451C375.297 114.451 241.714 207.181 257.582 222.045C269.785 233.488 340.673 246.487 393.925 246.331C409.922 246.3 424.281 245.056 435.017 242.257V228.668C435.017 228.668 402.592 222.356 392.761 214.426Z" fill="#FF777F"/>
<path d="M330.109 204.475L371.632 183.019C371.201 180.22 370.813 177.484 370.511 174.84C341.406 182.77 314.629 195.053 289.232 208.176C302.642 205.999 316.354 204.755 330.109 204.475Z" fill="#440136"/>
<path d="M356.239 190.948L371.589 183.019C367.967 160.474 369.433 142.003 371.503 129.937C364.906 138.458 359.732 147.538 356.713 157.022C353.177 168.124 352.703 179.847 356.239 190.948Z" fill="#440136"/>
<path d="M434.586 242.226C438.898 242.91 443.512 242.568 447.478 241.2C451.445 239.832 454.766 237.5 456.749 234.67C456.922 234.39 457.568 234.11 457.956 234.141C461.19 234.421 464.683 235.043 467.572 233.986C467.788 233.893 468.046 233.799 468.176 233.613C468.348 233.364 468.176 233.053 467.874 232.866C467.572 232.68 467.184 232.618 466.796 232.555C465.33 232.307 463.778 232.182 462.268 232.182C462.182 232.027 462.398 231.84 462.613 231.809C461.018 231.467 459.767 231.591 458.172 231.249C461.449 230.41 464.64 229.384 467.701 228.202C468.391 227.922 469.167 227.393 468.736 226.927C468.434 226.616 467.831 226.616 467.356 226.647C463.821 226.896 460.285 227.331 456.792 227.922C459.422 226.989 462.096 226.025 464.726 225.092C465.804 224.719 467.055 224.004 466.623 223.226C466.192 222.449 464.683 222.511 463.519 222.698C460.457 223.258 457.396 223.817 454.334 224.346C457.698 223.6 460.759 222.169 463.131 220.303C463.605 219.93 464.036 219.557 464.166 219.06C464.295 218.593 464.036 218.002 463.389 217.847C463.045 217.753 462.7 217.785 462.355 217.816C457.655 218.313 453.213 220.024 450.066 222.573C449.074 223.382 448.212 224.253 447.047 224.968C442.951 227.518 436.742 227.145 431.826 228.824C430.101 229.415 428.463 230.348 427.773 231.622C427.169 232.804 427.471 234.11 428.032 235.292C429.196 237.811 431.524 240.05 434.586 241.542C434.672 241.978 434.974 241.884 434.586 242.226Z" fill="#FF777F"/>
<path d="M627.07 214.084C624.526 205.128 613.401 198.754 602.061 194.649C594.472 191.881 585.848 189.425 581.709 184.045C581.579 184.045 581.493 184.076 581.364 184.107C580.76 183.516 580.07 182.957 579.251 182.521C577.009 181.308 574.033 181.029 571.317 181.339C570.325 181.464 569.29 181.682 568.514 182.148C567.738 182.614 567.264 183.423 567.609 184.107C566.056 183.112 563.771 182.801 561.831 183.267C559.89 183.765 558.381 185.071 558.036 186.533C558.381 186.564 558.683 186.595 559.028 186.626C557.778 186.688 556.57 186.999 555.622 187.559C554.069 188.492 553.207 190.015 553.509 191.446C554.802 190.886 556.096 190.326 557.433 189.767C557.734 189.642 558.079 189.518 558.381 189.58C559.028 189.704 558.942 190.42 558.424 190.731C557.907 191.042 557.217 191.104 556.7 191.384C555.578 191.912 555.449 193.218 556.441 193.871C557.605 194.431 559.157 193.592 559.761 192.659C560.365 191.757 560.667 190.637 561.744 190.015C562.822 189.425 564.332 189.518 565.625 189.922C565.711 190.171 565.798 190.451 565.927 190.7C567.134 193.374 569.032 195.893 569.851 198.66C571.274 203.325 569.549 208.207 570.067 212.996C571.015 221.734 580.501 229.508 592.1 231.809L590.807 231.654C596.499 233.426 603.225 232.96 608.874 231.125C614.565 229.321 619.309 226.274 623.491 222.978C624.742 221.983 625.992 220.925 626.725 219.681C627.717 217.909 627.587 215.919 627.07 214.084Z" fill="#FF777F"/>
<path d="M353.824 465.033C353.824 465.033 305.272 482.664 306.738 484.934C308.161 487.204 372.021 478 372.021 478L367.321 464.162L353.824 465.033Z" fill="#440136"/>
<path d="M670.017 357.345C670.017 357.345 717.103 376.905 718.957 374.791C720.811 372.676 675.019 339.278 675.019 339.278L661.565 349.727L670.017 357.345Z" fill="#440136"/>
<path d="M371.762 461.239C370.554 446.934 379.782 432.381 395.607 423.674C393.235 429.458 392.286 437.574 400.134 439.689C406.386 441.399 413.113 437.046 414.536 432.319C415.916 427.592 413.803 422.772 412.596 418.046C410.828 410.987 411.129 403.617 414.234 396.807C419.624 384.99 432.905 375.972 446.918 368.696C468.737 357.345 496.031 348.794 522.161 353.49C514.271 356.63 505.345 360.922 505.086 367.421C504.871 373.453 512.632 378.18 520.652 379.859C537.943 383.467 557.045 376.781 567.825 366.395C578.604 356.008 582.399 342.668 583.563 329.732C612.151 360.02 608.917 403.99 576.06 431.946C592.618 427.344 608.098 420.72 621.637 412.448C627.329 433.128 624.268 455.548 609.219 473.615C594.17 491.682 566.143 504.618 536.908 503.934C518.281 503.499 500.429 497.87 481.845 497.653C466.926 497.466 452.395 500.793 437.605 502.411C401.816 506.329 374.004 487.733 371.762 461.239Z" fill="#F39C26"/>
<path d="M556.915 479.524C561.443 469.168 557.303 457.88 551.439 447.867C545.618 437.948 536.994 427.872 522.98 424.203C517.892 422.866 512.287 422.461 507.501 420.596C502.714 418.73 498.834 414.687 500.731 411.018C502.154 408.344 506.078 406.882 509.829 405.98C517.073 404.27 524.921 403.897 532.423 404.892C529.621 400.103 522.722 397.025 515.607 396.154C508.492 395.283 501.205 396.309 494.306 397.771C477.791 401.223 461.924 407.411 451.23 417.082C440.537 426.753 435.707 440.311 441.485 451.972C443.641 456.294 447.134 460.244 448.643 464.691C450.152 469.137 449.074 474.548 443.771 477.098C439.588 479.119 433.379 478.591 429.929 475.916C426.523 473.242 426.264 468.733 429.412 465.872C418.201 468.515 409.534 476.01 407.895 484.437C406.731 490.532 409.318 496.906 414.536 501.758C421.65 503.032 429.412 503.312 437.561 502.442C452.308 500.825 466.882 497.528 481.802 497.684C497.324 497.87 512.33 501.82 527.68 503.375C540.271 497.217 552.388 489.848 556.915 479.524Z" fill="#FFE100"/>
<path d="M420.486 374.697C418.805 370.188 418.028 365.555 418.115 360.891C418.115 359.895 415.959 359.895 415.959 360.891C415.872 365.71 416.692 370.468 418.416 375.133C418.761 376.066 420.831 375.661 420.486 374.697Z" fill="#FEC000"/>
<path d="M431.611 334.676C431.524 333.681 429.368 333.681 429.455 334.676C429.757 338.75 430.015 342.792 430.317 346.866C430.403 347.861 432.559 347.861 432.473 346.866C432.214 342.792 431.912 338.75 431.611 334.676Z" fill="#FEC000"/>
<path d="M394.874 369.193C390.389 378.429 388.578 388.255 389.57 398.02C389.656 399.015 391.812 399.015 391.726 398.02C390.734 388.38 392.502 378.74 396.986 369.597C397.418 368.665 395.348 368.26 394.874 369.193Z" fill="#FEC000"/>
<path d="M641.903 398.486C635.996 401.129 630.088 403.773 624.181 406.416C623.017 406.944 624.095 408.281 625.259 407.753C631.166 405.11 637.074 402.467 642.981 399.823C644.145 399.295 643.067 397.958 641.903 398.486Z" fill="#FEC000"/>
<path d="M655.787 407.069C650.527 408.655 645.654 410.676 641.127 413.164C640.049 413.755 641.127 415.123 642.205 414.501C646.56 412.106 651.303 410.085 656.348 408.561C657.598 408.188 657.037 406.696 655.787 407.069Z" fill="#FEC000"/>
<path d="M651.26 432.07C649.276 432.879 647.336 433.687 645.352 434.496C644.145 434.993 645.223 436.33 646.43 435.833L652.338 433.408C653.545 432.91 652.467 431.573 651.26 432.07Z" fill="#FEC000"/>
<path d="M735.04 103.008C733.661 103.008 733.661 104.562 735.04 104.562C736.42 104.562 736.42 103.008 735.04 103.008Z" fill="#0D64B2"/>
<path d="M780.273 97.1614C778.893 97.1614 778.893 98.7162 780.273 98.7162C781.653 98.7162 781.653 97.1614 780.273 97.1614Z" fill="#0D64B2"/>
<path d="M763.973 112.803C762.594 112.803 762.594 114.358 763.973 114.358C765.353 114.358 765.353 112.803 763.973 112.803Z" fill="#0D64B2"/>
<path d="M779.367 136.312C777.987 136.312 777.987 137.867 779.367 137.867C780.747 137.867 780.747 136.312 779.367 136.312Z" fill="#0D64B2"/>
<path d="M701.537 89.325C700.157 89.325 700.157 90.8799 701.537 90.8799C702.917 90.8799 702.96 89.325 701.537 89.325Z" fill="#0D64B2"/>
<path d="M626.295 98.6851C625.993 98.4674 625.691 98.2497 625.389 98.032C625.001 97.7521 624.268 97.7211 623.88 98.032C623.492 98.343 623.448 98.8094 623.88 99.1204L624.785 99.7734C625.173 100.053 625.906 100.084 626.295 99.7734C626.726 99.4625 626.726 98.996 626.295 98.6851Z" fill="#0D64B2"/>
<path d="M705.461 119.395C704.943 119.271 704.253 119.551 704.124 119.924C703.995 120.359 704.296 120.733 704.857 120.888H704.9L704.943 120.919C704.943 120.95 704.986 120.981 705.029 120.981C705.029 120.981 705.029 120.981 705.029 121.012V121.043V121.075C705.029 121.106 704.986 121.168 704.986 121.168C704.814 121.541 705.202 122.039 705.719 122.132C706.323 122.225 706.884 122.007 707.056 121.603C707.487 120.67 706.711 119.706 705.461 119.395Z" fill="#0D64B2"/>
<path d="M559.502 225.683C558.123 225.683 558.123 227.238 559.502 227.238C560.882 227.238 560.882 225.683 559.502 225.683Z" fill="#0D64B2"/>
<path d="M533.286 249.814C531.906 249.814 531.906 251.369 533.286 251.369C534.666 251.369 534.666 249.814 533.286 249.814Z" fill="#0D64B2"/>
<path d="M544.109 272.017C542.729 272.017 542.729 273.572 544.109 273.572C545.532 273.572 545.532 272.017 544.109 272.017Z" fill="#0D64B2"/>
<path d="M554.975 255.691C553.595 255.691 553.595 257.246 554.975 257.246C556.354 257.246 556.354 255.691 554.975 255.691Z" fill="#0D64B2"/>
<path d="M735.04 266.14H734.135C733.574 266.14 733.014 266.482 733.057 266.917C733.1 267.352 733.531 267.694 734.135 267.694H735.04C735.601 267.694 736.162 267.352 736.118 266.917C736.075 266.482 735.644 266.14 735.04 266.14Z" fill="#0D64B2"/>
<path d="M745.863 250.467C744.484 250.467 744.484 252.022 745.863 252.022C747.286 252.022 747.286 250.467 745.863 250.467Z" fill="#0D64B2"/>
<path d="M768.501 265.486C767.121 265.486 767.121 267.041 768.501 267.041C769.881 267.041 769.881 265.486 768.501 265.486Z" fill="#0D64B2"/>
<path d="M409.189 321.18C408.887 320.963 408.585 320.745 408.283 320.527C407.895 320.247 407.162 320.216 406.774 320.527C406.386 320.838 406.343 321.305 406.774 321.616C407.076 321.833 407.378 322.051 407.68 322.269C408.068 322.549 408.801 322.58 409.189 322.269C409.577 321.958 409.62 321.491 409.189 321.18Z" fill="#0D64B2"/>
<path d="M433.767 317.698C432.387 317.698 432.387 319.252 433.767 319.252C435.147 319.252 435.147 317.698 433.767 317.698Z" fill="#0D64B2"/>
<path d="M434.673 333.339C433.293 333.339 433.293 334.894 434.673 334.894C436.053 334.894 436.053 333.339 434.673 333.339Z" fill="#0D64B2"/>
<path d="M356.842 273.323C355.462 273.323 355.462 274.878 356.842 274.878C358.222 274.878 358.222 273.323 356.842 273.323Z" fill="#0D64B2"/>
<path d="M335.153 255.691C333.773 255.691 333.773 257.246 335.153 257.246C336.533 257.246 336.533 255.691 335.153 255.691Z" fill="#0D64B2"/>
<path d="M495.255 84.7539C493.875 84.7539 493.875 86.3087 495.255 86.3087C496.678 86.3087 496.678 84.7539 495.255 84.7539Z" fill="#0D64B2"/>
<path d="M520.609 65.1943C519.229 65.1943 519.229 66.7491 520.609 66.7491C521.989 66.7491 521.989 65.1943 520.609 65.1943Z" fill="#0D64B2"/>
<path d="M488.054 67.7751C486.674 67.7751 486.674 69.3299 488.054 69.3299C489.434 69.3299 489.434 67.7751 488.054 67.7751Z" fill="#0D64B2"/>
<path d="M510.648 78.2237C509.268 78.2237 509.268 79.7785 510.648 79.7785C512.028 79.7785 512.028 78.2237 510.648 78.2237Z" fill="#0D64B2"/>
<path d="M126.155 106.273C124.775 106.273 124.775 107.827 126.155 107.827C127.535 107.827 127.535 106.273 126.155 106.273Z" fill="#0D64B2"/>
<path d="M143.316 90.6311C141.936 90.6311 141.936 92.1859 143.316 92.1859C144.739 92.1859 144.739 90.6311 143.316 90.6311Z" fill="#0D64B2"/>
<path d="M157.675 99.3381L156.77 98.6851C156.382 98.4052 155.649 98.3741 155.261 98.6851C154.872 98.9961 154.829 99.4625 155.261 99.7735C155.562 99.9912 155.864 100.209 156.166 100.427C156.554 100.706 157.287 100.737 157.675 100.427C158.063 100.116 158.106 99.6491 157.675 99.3381Z" fill="#0D64B2"/>
<path d="M97.1791 106.273C95.7993 106.273 95.7993 107.827 97.1791 107.827C98.602 107.827 98.602 106.273 97.1791 106.273Z" fill="#0D64B2"/>
<path d="M127.966 88.019H127.06C126.5 88.019 125.939 88.3611 125.982 88.7964C126.025 89.2318 126.457 89.5738 127.06 89.5738H127.966C128.526 89.5738 129.087 89.2318 129.044 88.7964C129.001 88.3611 128.57 88.019 127.966 88.019Z" fill="#0D64B2"/>
<path d="M149.655 101.08C148.275 101.08 148.275 102.634 149.655 102.634C151.035 102.634 151.078 101.08 149.655 101.08Z" fill="#0D64B2"/>
<path d="M146.033 214.582C144.653 214.582 144.653 216.136 146.033 216.136C147.456 216.136 147.456 214.582 146.033 214.582Z" fill="#0D64B2"/>
<path d="M138.832 230.254C137.452 230.254 137.452 231.809 138.832 231.809C140.212 231.809 140.212 230.254 138.832 230.254Z" fill="#0D64B2"/>
<path d="M157.804 241.356C156.424 241.356 156.424 242.91 157.804 242.91C159.184 242.91 159.184 241.356 157.804 241.356Z" fill="#0D64B2"/>
<path d="M161.384 312.069C161.082 311.634 160.564 311.323 159.918 311.167C159.357 311.043 158.71 311.292 158.581 311.696C158.452 312.1 158.753 312.535 159.314 312.66C159.357 312.66 159.357 312.691 159.357 312.691C159.357 312.691 159.357 312.691 159.357 312.722C159.357 312.753 159.4 312.753 159.4 312.784C159.4 312.784 159.4 312.784 159.4 312.815C159.4 312.815 159.4 312.815 159.4 312.846V312.877C159.4 312.909 159.4 312.94 159.4 312.909V312.94C159.228 313.313 159.314 313.717 159.831 313.935C160.306 314.121 161.082 314.028 161.297 313.655C161.685 313.095 161.729 312.598 161.384 312.069Z" fill="#0D64B2"/>
<path d="M143.187 332.904C142.885 332.686 142.583 332.468 142.281 332.251C141.893 331.971 141.16 331.94 140.772 332.251C140.384 332.562 140.341 333.028 140.772 333.339L141.678 333.992C142.066 334.272 142.799 334.303 143.187 333.992C143.575 333.712 143.618 333.215 143.187 332.904Z" fill="#0D64B2"/>
<path d="M161.427 349.012C160.047 349.012 160.047 350.567 161.427 350.567C162.806 350.567 162.806 349.012 161.427 349.012Z" fill="#0D64B2"/>
<path d="M162.332 331.38C160.952 331.38 160.952 332.935 162.332 332.935C163.712 332.935 163.712 331.38 162.332 331.38Z" fill="#0D64B2"/>
<path d="M541.392 265.487C540.789 265.518 540.314 265.829 540.314 266.264V266.917C540.314 267.321 540.789 267.726 541.392 267.694C541.996 267.663 542.47 267.352 542.47 266.917V266.264C542.47 265.86 541.996 265.455 541.392 265.487Z" fill="#0D64B2"/>
<path d="M554.069 245.927C552.69 245.927 552.69 247.482 554.069 247.482C555.449 247.482 555.449 245.927 554.069 245.927Z" fill="#0D64B2"/>
<path d="M596.585 111.497C595.205 111.497 595.205 113.052 596.585 113.052C598.008 113.052 598.008 111.497 596.585 111.497Z" fill="#0D64B2"/>
<path d="M631.899 111.497C630.519 111.497 630.519 113.052 631.899 113.052C633.279 113.052 633.279 111.497 631.899 111.497Z" fill="#0D64B2"/>
<path d="M596.585 91.9372C595.205 91.9372 595.205 93.492 596.585 93.492C598.008 93.492 598.008 91.9372 596.585 91.9372Z" fill="#0D64B2"/>
<path d="M729.608 499.332C743.801 499.332 755.307 497.884 755.307 496.098C755.307 494.312 743.801 492.864 729.608 492.864C715.415 492.864 703.909 494.312 703.909 496.098C703.909 497.884 715.415 499.332 729.608 499.332Z" fill="#FFD6CA"/>
<path d="M790.621 496.098C801.694 496.098 810.671 494.97 810.671 493.579C810.671 492.188 801.694 491.06 790.621 491.06C779.548 491.06 770.571 492.188 770.571 493.579C770.571 494.97 779.548 496.098 790.621 496.098Z" fill="#FFD6CA"/>
</g>
<defs>
<clipPath id="clip0">
<rect width="900" height="500" fill="white"/>
</clipPath>
</defs>
</svg>
